<mxfile host="Electron" agent="Mozilla/5.0 (Macintosh; Intel Mac OS X 10_15_7) AppleWebKit/537.36 (KHTML, like Gecko) draw.io/28.1.2 Chrome/138.0.7204.243 Electron/37.4.0 Safari/537.36" version="28.1.2" pages="3">
  <diagram name="Initializers" id="xWZ461zp9jYcXtCNbV3G">
    <mxGraphModel dx="3213" dy="676" grid="1" gridSize="10" guides="1" tooltips="1" connect="1" arrows="1" fold="1" page="1" pageScale="1" pageWidth="2336" pageHeight="1654" math="0" shadow="0">
      <root>
        <mxCell id="0" />
        <mxCell id="1" parent="0" />
        <mxCell id="3IASwDgf_COoiKYOPxRM-22" value="Initializers imp Diagram&lt;div&gt;&lt;br&gt;&lt;/div&gt;&lt;div&gt;&lt;font style=&quot;font-size: 10px; color: rgb(128, 128, 128);&quot;&gt;In Typealiases.swift file protocols of underlying collections are listed&lt;/font&gt;&lt;/div&gt;" style="rounded=0;whiteSpace=wrap;html=1;fontStyle=1;fillColor=#f5f5f5;fontColor=#333333;strokeColor=#666666;fontSize=14;strokeWidth=0.65;" parent="1" vertex="1">
          <mxGeometry x="440" width="1240" height="80" as="geometry" />
        </mxCell>
        <mxCell id="sW1JyRlPo4o779v0U5yo-18" value="" style="rounded=0;whiteSpace=wrap;html=1;strokeWidth=0.5;opacity=70;" parent="1" vertex="1">
          <mxGeometry x="280" y="920" width="1560" height="240" as="geometry" />
        </mxCell>
        <mxCell id="3IASwDgf_COoiKYOPxRM-10" style="edgeStyle=orthogonalEdgeStyle;rounded=0;orthogonalLoop=1;jettySize=auto;html=1;exitX=0.75;exitY=1;exitDx=0;exitDy=0;entryX=0.5;entryY=0;entryDx=0;entryDy=0;entryPerimeter=0;strokeColor=#FF8000;dashed=1;strokeWidth=1.15;" parent="1" source="3IASwDgf_COoiKYOPxRM-1" target="3IASwDgf_COoiKYOPxRM-11" edge="1">
          <mxGeometry relative="1" as="geometry">
            <mxPoint x="460" y="360" as="targetPoint" />
          </mxGeometry>
        </mxCell>
        <mxCell id="3IASwDgf_COoiKYOPxRM-1" value="Mutable" style="rounded=1;whiteSpace=wrap;html=1;fontStyle=1" parent="1" vertex="1">
          <mxGeometry x="400" y="240" width="120" height="40" as="geometry" />
        </mxCell>
        <mxCell id="3IASwDgf_COoiKYOPxRM-9" style="edgeStyle=orthogonalEdgeStyle;rounded=0;orthogonalLoop=1;jettySize=auto;html=1;exitX=0.25;exitY=1;exitDx=0;exitDy=0;entryX=0.5;entryY=0;entryDx=0;entryDy=0;entryPerimeter=0;strokeColor=#FF8000;dashed=1;strokeWidth=1.15;" parent="1" source="3IASwDgf_COoiKYOPxRM-2" target="3IASwDgf_COoiKYOPxRM-11" edge="1">
          <mxGeometry relative="1" as="geometry">
            <mxPoint x="460" y="360" as="targetPoint" />
          </mxGeometry>
        </mxCell>
        <mxCell id="3IASwDgf_COoiKYOPxRM-2" value="RangeReplaceable" style="rounded=1;whiteSpace=wrap;html=1;fontStyle=1" parent="1" vertex="1">
          <mxGeometry x="700" y="240" width="120" height="40" as="geometry" />
        </mxCell>
        <mxCell id="3IASwDgf_COoiKYOPxRM-5" style="edgeStyle=orthogonalEdgeStyle;rounded=0;orthogonalLoop=1;jettySize=auto;html=1;exitX=0.5;exitY=1;exitDx=0;exitDy=0;entryX=0.5;entryY=0;entryDx=0;entryDy=0;dashed=1;" parent="1" source="3IASwDgf_COoiKYOPxRM-3" target="3IASwDgf_COoiKYOPxRM-2" edge="1">
          <mxGeometry relative="1" as="geometry" />
        </mxCell>
        <mxCell id="3IASwDgf_COoiKYOPxRM-6" style="edgeStyle=orthogonalEdgeStyle;rounded=0;orthogonalLoop=1;jettySize=auto;html=1;exitX=0.5;exitY=1;exitDx=0;exitDy=0;entryX=0.5;entryY=0;entryDx=0;entryDy=0;dashed=1;" parent="1" source="3IASwDgf_COoiKYOPxRM-3" target="3IASwDgf_COoiKYOPxRM-1" edge="1">
          <mxGeometry relative="1" as="geometry" />
        </mxCell>
        <mxCell id="3IASwDgf_COoiKYOPxRM-3" value="Collection" style="rounded=1;whiteSpace=wrap;html=1;fontStyle=1" parent="1" vertex="1">
          <mxGeometry x="920" y="120" width="120" height="40" as="geometry" />
        </mxCell>
        <mxCell id="3IASwDgf_COoiKYOPxRM-11" value="&lt;span style=&quot;font-size: 10px; font-weight: 700; text-wrap-mode: wrap;&quot;&gt;RangeReplaceable&lt;/span&gt;&lt;div style=&quot;font-size: 10px; font-weight: 700; text-wrap-mode: wrap;&quot;&gt;+&lt;br&gt;&lt;div&gt;Mutable&lt;/div&gt;&lt;/div&gt;" style="verticalLabelPosition=middle;verticalAlign=middle;html=1;shape=mxgraph.basic.patternFillRect;fillStyle=diag;step=5;fillStrokeWidth=0.2;fillStrokeColor=#dddddd;align=center;labelPosition=center;whiteSpace=wrap;" parent="1" vertex="1">
          <mxGeometry x="600" y="360" width="120" height="40" as="geometry" />
        </mxCell>
        <mxCell id="3IASwDgf_COoiKYOPxRM-12" value="&lt;span style=&quot;font-size: 10px; text-wrap-mode: wrap;&quot;&gt;&lt;b&gt;Deque&lt;/b&gt;&lt;/span&gt;" style="verticalLabelPosition=middle;verticalAlign=middle;html=1;shape=mxgraph.basic.patternFillRect;fillStyle=diag;step=5;fillStrokeWidth=0.2;fillStrokeColor=#dddddd;align=center;labelPosition=center;whiteSpace=wrap;strokeWidth=0.75;" parent="1" vertex="1">
          <mxGeometry x="600" y="540" width="120" height="20" as="geometry" />
        </mxCell>
        <mxCell id="3IASwDgf_COoiKYOPxRM-13" value="&lt;span style=&quot;font-size: 10px; text-wrap-mode: wrap;&quot;&gt;&lt;b&gt;BitArray&lt;/b&gt;&lt;/span&gt;" style="verticalLabelPosition=middle;verticalAlign=middle;html=1;shape=mxgraph.basic.patternFillRect;fillStyle=diag;step=5;fillStrokeWidth=0.2;fillStrokeColor=#dddddd;align=center;labelPosition=center;whiteSpace=wrap;strokeWidth=0.75;" parent="1" vertex="1">
          <mxGeometry x="600" y="580" width="120" height="20" as="geometry" />
        </mxCell>
        <mxCell id="3IASwDgf_COoiKYOPxRM-15" value="&lt;span style=&quot;font-size: 10px; text-wrap-mode: wrap;&quot;&gt;&lt;b&gt;Array&lt;/b&gt;&lt;/span&gt;" style="verticalLabelPosition=middle;verticalAlign=middle;html=1;shape=mxgraph.basic.patternFillRect;fillStyle=diag;step=5;fillStrokeWidth=0.2;fillStrokeColor=#dddddd;align=center;labelPosition=center;whiteSpace=wrap;strokeWidth=0.75;" parent="1" vertex="1">
          <mxGeometry x="600" y="460" width="120" height="20" as="geometry" />
        </mxCell>
        <mxCell id="3IASwDgf_COoiKYOPxRM-16" value="&lt;span style=&quot;font-size: 10px; text-wrap-mode: wrap;&quot;&gt;&lt;b&gt;ContiguousArray&lt;/b&gt;&lt;/span&gt;" style="verticalLabelPosition=middle;verticalAlign=middle;html=1;shape=mxgraph.basic.patternFillRect;fillStyle=diag;step=5;fillStrokeWidth=0.2;fillStrokeColor=#dddddd;align=center;labelPosition=center;whiteSpace=wrap;strokeWidth=0.75;" parent="1" vertex="1">
          <mxGeometry x="600" y="500" width="120" height="20" as="geometry" />
        </mxCell>
        <mxCell id="3IASwDgf_COoiKYOPxRM-19" value="&lt;span style=&quot;font-size: 10px; text-wrap-mode: wrap;&quot;&gt;&lt;b&gt;RangeSet&lt;/b&gt;&lt;/span&gt;" style="verticalLabelPosition=middle;verticalAlign=middle;html=1;shape=mxgraph.basic.patternFillRect;fillStyle=diag;step=5;fillStrokeWidth=0.2;fillStrokeColor=#dddddd;align=center;labelPosition=center;fillColor=#dae8fc;strokeColor=#6c8ebf;whiteSpace=wrap;strokeWidth=0.75;" parent="1" vertex="1">
          <mxGeometry x="1600" y="460" width="120" height="20" as="geometry" />
        </mxCell>
        <mxCell id="sW1JyRlPo4o779v0U5yo-2" style="edgeStyle=orthogonalEdgeStyle;rounded=0;orthogonalLoop=1;jettySize=auto;html=1;exitX=0.5;exitY=1;exitDx=0;exitDy=0;entryX=0.5;entryY=0;entryDx=0;entryDy=0;entryPerimeter=0;dashed=1;" parent="1" source="3IASwDgf_COoiKYOPxRM-3" target="sW1JyRlPo4o779v0U5yo-1" edge="1">
          <mxGeometry relative="1" as="geometry">
            <Array as="points">
              <mxPoint x="980" y="200" />
              <mxPoint x="1260" y="200" />
            </Array>
          </mxGeometry>
        </mxCell>
        <mxCell id="sW1JyRlPo4o779v0U5yo-12" value="&lt;span style=&quot;font-size: 10px; font-weight: 700; text-wrap-mode: wrap;&quot;&gt;RangeReplaceable&lt;/span&gt;&lt;div&gt;&lt;span style=&quot;font-size: 10px; text-wrap-mode: wrap;&quot;&gt;&lt;b&gt;&lt;br&gt;&lt;/b&gt;&lt;/span&gt;&lt;div style=&quot;font-size: 10px; font-weight: 700; text-wrap-mode: wrap;&quot;&gt;only&lt;/div&gt;&lt;/div&gt;" style="verticalLabelPosition=middle;verticalAlign=middle;html=1;shape=mxgraph.basic.patternFillRect;fillStyle=diag;step=5;fillStrokeWidth=0.2;fillStrokeColor=#dddddd;align=center;labelPosition=center;whiteSpace=wrap;" parent="1" vertex="1">
          <mxGeometry x="800" y="360" width="120" height="40" as="geometry" />
        </mxCell>
        <mxCell id="sW1JyRlPo4o779v0U5yo-13" value="&lt;span style=&quot;font-size: 10px; text-wrap-mode: wrap;&quot;&gt;&lt;b&gt;BigString&lt;/b&gt;&lt;/span&gt;" style="verticalLabelPosition=middle;verticalAlign=middle;html=1;shape=mxgraph.basic.patternFillRect;fillStyle=diag;step=5;fillStrokeWidth=0.2;fillStrokeColor=#dddddd;align=center;labelPosition=center;whiteSpace=wrap;strokeWidth=0.75;" parent="1" vertex="1">
          <mxGeometry x="800" y="460" width="120" height="20" as="geometry" />
        </mxCell>
        <mxCell id="sW1JyRlPo4o779v0U5yo-14" value="&lt;span style=&quot;font-size: 10px; font-weight: 700; text-wrap-mode: wrap;&quot;&gt;Mutable&lt;/span&gt;&lt;div&gt;&lt;span style=&quot;font-size: 10px; text-wrap-mode: wrap;&quot;&gt;&lt;b&gt;&lt;br&gt;&lt;/b&gt;&lt;/span&gt;&lt;div style=&quot;font-size: 10px; font-weight: 700; text-wrap-mode: wrap;&quot;&gt;only&lt;/div&gt;&lt;/div&gt;" style="verticalLabelPosition=middle;verticalAlign=middle;html=1;shape=mxgraph.basic.patternFillRect;fillStyle=diag;step=5;fillStrokeWidth=0.2;fillStrokeColor=#dddddd;align=center;labelPosition=center;whiteSpace=wrap;" parent="1" vertex="1">
          <mxGeometry x="400" y="360" width="120" height="40" as="geometry" />
        </mxCell>
        <mxCell id="sW1JyRlPo4o779v0U5yo-15" value="&lt;span style=&quot;font-size: 10px; text-wrap-mode: wrap;&quot;&gt;&lt;b&gt;CollectionOfOne&lt;/b&gt;&lt;/span&gt;" style="verticalLabelPosition=middle;verticalAlign=middle;html=1;shape=mxgraph.basic.patternFillRect;fillStyle=diag;step=5;fillStrokeWidth=0.2;fillStrokeColor=#dddddd;align=center;labelPosition=center;whiteSpace=wrap;strokeWidth=0.75;" parent="1" vertex="1">
          <mxGeometry x="400" y="460" width="120" height="20" as="geometry" />
        </mxCell>
        <mxCell id="sW1JyRlPo4o779v0U5yo-16" style="edgeStyle=orthogonalEdgeStyle;rounded=0;orthogonalLoop=1;jettySize=auto;html=1;exitX=0.75;exitY=1;exitDx=0;exitDy=0;entryX=0.5;entryY=0;entryDx=0;entryDy=0;entryPerimeter=0;strokeWidth=1;dashed=1;" parent="1" source="3IASwDgf_COoiKYOPxRM-2" target="sW1JyRlPo4o779v0U5yo-12" edge="1">
          <mxGeometry relative="1" as="geometry" />
        </mxCell>
        <mxCell id="sW1JyRlPo4o779v0U5yo-17" style="edgeStyle=orthogonalEdgeStyle;rounded=0;orthogonalLoop=1;jettySize=auto;html=1;entryX=0.5;entryY=0;entryDx=0;entryDy=0;entryPerimeter=0;strokeWidth=1;dashed=1;" parent="1" target="sW1JyRlPo4o779v0U5yo-14" edge="1">
          <mxGeometry relative="1" as="geometry">
            <mxPoint x="460" y="280" as="sourcePoint" />
            <Array as="points">
              <mxPoint x="460" y="321" />
              <mxPoint x="460" y="321" />
            </Array>
          </mxGeometry>
        </mxCell>
        <mxCell id="X6VAbB2DJtp1OujrMZTn-1" value="&lt;font style=&quot;color: rgb(153, 153, 153);&quot;&gt;&lt;span style=&quot;font-size: 10px; text-wrap-mode: wrap;&quot;&gt;&lt;b&gt;Empty&lt;/b&gt;&lt;/span&gt;&lt;b style=&quot;font-size: 10px; text-wrap-mode: wrap; background-color: transparent;&quot;&gt;Collection&lt;/b&gt;&lt;/font&gt;" style="verticalLabelPosition=middle;verticalAlign=middle;html=1;shape=mxgraph.basic.patternFillRect;fillStyle=diag;step=5;fillStrokeWidth=0.2;fillStrokeColor=#dddddd;align=center;labelPosition=center;fillColor=#f5f5f5;fontColor=#333333;strokeColor=#666666;whiteSpace=wrap;strokeWidth=0.75;" parent="1" vertex="1">
          <mxGeometry x="400" y="500" width="120" height="20" as="geometry" />
        </mxCell>
        <mxCell id="X6VAbB2DJtp1OujrMZTn-2" value="NonEmpty&lt;div&gt;Disallowed&lt;/div&gt;" style="rounded=1;whiteSpace=wrap;html=1;fontStyle=1;fillColor=#f5f5f5;fontColor=#999999;strokeColor=#808080;" parent="1" vertex="1">
          <mxGeometry x="400" y="600" width="120" height="40" as="geometry" />
        </mxCell>
        <mxCell id="X6VAbB2DJtp1OujrMZTn-3" style="edgeStyle=orthogonalEdgeStyle;rounded=0;orthogonalLoop=1;jettySize=auto;html=1;exitX=0.5;exitY=0;exitDx=0;exitDy=0;entryX=0.5;entryY=1;entryDx=0;entryDy=0;entryPerimeter=0;fontColor=default;strokeColor=#808080;strokeWidth=0.75;" parent="1" source="X6VAbB2DJtp1OujrMZTn-2" target="X6VAbB2DJtp1OujrMZTn-1" edge="1">
          <mxGeometry relative="1" as="geometry" />
        </mxCell>
        <mxCell id="X6VAbB2DJtp1OujrMZTn-5" value="&lt;font style=&quot;&quot;&gt;&lt;b style=&quot;font-size: 10px; text-wrap-mode: wrap; background-color: transparent;&quot;&gt;no Collection&lt;/b&gt;&lt;/font&gt;&lt;div&gt;&lt;font style=&quot;&quot;&gt;&lt;b style=&quot;font-size: 10px; text-wrap-mode: wrap; background-color: transparent;&quot;&gt;conformance&lt;/b&gt;&lt;/font&gt;&lt;/div&gt;" style="verticalLabelPosition=middle;verticalAlign=middle;html=1;shape=mxgraph.basic.patternFillRect;fillStyle=diag;step=5;fillStrokeWidth=0.2;fillStrokeColor=#dddddd;align=center;labelPosition=center;fillColor=#f5f5f5;fontColor=#000000;strokeColor=#666666;whiteSpace=wrap;" parent="1" vertex="1">
          <mxGeometry x="1600" y="360" width="120" height="40" as="geometry" />
        </mxCell>
        <mxCell id="X6VAbB2DJtp1OujrMZTn-6" value="&lt;span style=&quot;font-size: 10px; text-wrap-mode: wrap;&quot;&gt;&lt;b&gt;Supportable&lt;/b&gt;&lt;/span&gt;" style="verticalLabelPosition=middle;verticalAlign=middle;html=1;shape=mxgraph.basic.patternFillRect;fillStyle=diag;step=5;fillStrokeWidth=0.2;fillStrokeColor=#dddddd;align=center;labelPosition=center;whiteSpace=wrap;strokeWidth=0.75;" parent="1" vertex="1">
          <mxGeometry x="200" y="120" width="120" height="20" as="geometry" />
        </mxCell>
        <mxCell id="X6VAbB2DJtp1OujrMZTn-7" value="&lt;font color=&quot;#999999&quot;&gt;&lt;span style=&quot;font-size: 10px;&quot;&gt;&lt;b&gt;Explicitly disallowed&lt;/b&gt;&lt;/span&gt;&lt;/font&gt;" style="verticalLabelPosition=middle;verticalAlign=middle;html=1;shape=mxgraph.basic.patternFillRect;fillStyle=diag;step=5;fillStrokeWidth=0.2;fillStrokeColor=#dddddd;align=center;labelPosition=center;fillColor=#f5f5f5;fontColor=#333333;strokeColor=#666666;whiteSpace=wrap;strokeWidth=0.75;" parent="1" vertex="1">
          <mxGeometry x="200" y="240" width="120" height="20" as="geometry" />
        </mxCell>
        <mxCell id="X6VAbB2DJtp1OujrMZTn-8" value="&lt;span style=&quot;font-size: 10px; text-wrap-mode: wrap;&quot;&gt;&lt;b&gt;To be done&lt;/b&gt;&lt;/span&gt;" style="verticalLabelPosition=middle;verticalAlign=middle;html=1;shape=mxgraph.basic.patternFillRect;fillStyle=diag;step=5;fillStrokeWidth=0.2;fillStrokeColor=#dddddd;align=center;labelPosition=center;fillColor=#dae8fc;strokeColor=#6c8ebf;whiteSpace=wrap;strokeWidth=0.75;" parent="1" vertex="1">
          <mxGeometry x="200" y="160" width="120" height="20" as="geometry" />
        </mxCell>
        <mxCell id="X6VAbB2DJtp1OujrMZTn-15" value="&lt;span style=&quot;font-size: 10px; text-wrap-mode: wrap;&quot;&gt;&lt;b&gt;String&lt;/b&gt;&lt;/span&gt;" style="verticalLabelPosition=middle;verticalAlign=middle;html=1;shape=mxgraph.basic.patternFillRect;fillStyle=diag;step=5;fillStrokeWidth=0.2;fillStrokeColor=#dddddd;align=center;labelPosition=center;whiteSpace=wrap;strokeWidth=0.75;" parent="1" vertex="1">
          <mxGeometry x="800" y="520" width="120" height="20" as="geometry" />
        </mxCell>
        <mxCell id="X6VAbB2DJtp1OujrMZTn-22" value="&lt;span style=&quot;font-size: 10px; font-weight: 700;&quot;&gt;RangeReplaceable&lt;/span&gt;&lt;div style=&quot;font-size: 10px; font-weight: 700;&quot;&gt;+&lt;br&gt;&lt;div&gt;Mutable&lt;/div&gt;&lt;/div&gt;" style="shape=hexagon;perimeter=hexagonPerimeter2;whiteSpace=wrap;html=1;fixedSize=1;" parent="1" vertex="1">
          <mxGeometry x="-360" y="960" width="120" height="50" as="geometry" />
        </mxCell>
        <mxCell id="X6VAbB2DJtp1OujrMZTn-23" value="Vertical Container" style="swimlane;whiteSpace=wrap;html=1;" parent="1" vertex="1">
          <mxGeometry x="-150" y="680" width="190" height="200" as="geometry" />
        </mxCell>
        <mxCell id="X6VAbB2DJtp1OujrMZTn-29" value="List" style="swimlane;fontStyle=0;childLayout=stackLayout;horizontal=1;startSize=30;horizontalStack=0;resizeParent=1;resizeParentMax=0;resizeLast=0;collapsible=1;marginBottom=0;whiteSpace=wrap;html=1;" parent="1" vertex="1">
          <mxGeometry x="-340" y="680" width="140" height="120" as="geometry" />
        </mxCell>
        <mxCell id="X6VAbB2DJtp1OujrMZTn-30" value="Item 1" style="text;strokeColor=none;fillColor=none;align=left;verticalAlign=middle;spacingLeft=4;spacingRight=4;overflow=hidden;points=[[0,0.5],[1,0.5]];portConstraint=eastwest;rotatable=0;whiteSpace=wrap;html=1;" parent="X6VAbB2DJtp1OujrMZTn-29" vertex="1">
          <mxGeometry y="30" width="140" height="30" as="geometry" />
        </mxCell>
        <mxCell id="X6VAbB2DJtp1OujrMZTn-31" value="Item 2" style="text;strokeColor=none;fillColor=none;align=left;verticalAlign=middle;spacingLeft=4;spacingRight=4;overflow=hidden;points=[[0,0.5],[1,0.5]];portConstraint=eastwest;rotatable=0;whiteSpace=wrap;html=1;" parent="X6VAbB2DJtp1OujrMZTn-29" vertex="1">
          <mxGeometry y="60" width="140" height="30" as="geometry" />
        </mxCell>
        <mxCell id="X6VAbB2DJtp1OujrMZTn-32" value="Item 3" style="text;strokeColor=none;fillColor=none;align=left;verticalAlign=middle;spacingLeft=4;spacingRight=4;overflow=hidden;points=[[0,0.5],[1,0.5]];portConstraint=eastwest;rotatable=0;whiteSpace=wrap;html=1;" parent="X6VAbB2DJtp1OujrMZTn-29" vertex="1">
          <mxGeometry y="90" width="140" height="30" as="geometry" />
        </mxCell>
        <mxCell id="X6VAbB2DJtp1OujrMZTn-45" value="" style="swimlane;shape=mxgraph.bootstrap.anchor;strokeColor=none;fillColor=#6C767D;fontColor=#ffffff;fontStyle=0;childLayout=stackLayout;horizontal=0;startSize=0;horizontalStack=1;resizeParent=1;resizeParentMax=0;resizeLast=0;collapsible=0;marginBottom=0;whiteSpace=wrap;html=1;" parent="1" vertex="1">
          <mxGeometry x="-760" y="960" width="260" height="30" as="geometry" />
        </mxCell>
        <mxCell id="X6VAbB2DJtp1OujrMZTn-46" value="1" style="text;strokeColor=inherit;align=center;verticalAlign=middle;spacingLeft=10;spacingRight=10;overflow=hidden;points=[[0,0.5],[1,0.5]];portConstraint=eastwest;rotatable=0;whiteSpace=wrap;html=1;shape=mxgraph.bootstrap.leftButton;rSize=5;fillColor=inherit;fontColor=inherit;" parent="X6VAbB2DJtp1OujrMZTn-45" vertex="1">
          <mxGeometry width="30" height="30" as="geometry" />
        </mxCell>
        <mxCell id="X6VAbB2DJtp1OujrMZTn-47" value="2" style="text;strokeColor=inherit;align=center;verticalAlign=middle;spacingLeft=10;spacingRight=10;overflow=hidden;points=[[0,0.5],[1,0.5]];portConstraint=eastwest;rotatable=0;whiteSpace=wrap;html=1;rSize=5;fillColor=inherit;fontColor=inherit;" parent="X6VAbB2DJtp1OujrMZTn-45" vertex="1">
          <mxGeometry x="30" width="30" height="30" as="geometry" />
        </mxCell>
        <mxCell id="X6VAbB2DJtp1OujrMZTn-48" value="3" style="text;strokeColor=inherit;align=center;verticalAlign=middle;spacingLeft=10;spacingRight=10;overflow=hidden;points=[[0,0.5],[1,0.5]];portConstraint=eastwest;rotatable=0;whiteSpace=wrap;html=1;rSize=5;fillColor=inherit;fontColor=inherit;" parent="X6VAbB2DJtp1OujrMZTn-45" vertex="1">
          <mxGeometry x="60" width="30" height="30" as="geometry" />
        </mxCell>
        <mxCell id="X6VAbB2DJtp1OujrMZTn-49" value="4" style="text;strokeColor=inherit;align=center;verticalAlign=middle;spacingLeft=10;spacingRight=10;overflow=hidden;points=[[0,0.5],[1,0.5]];portConstraint=eastwest;rotatable=0;whiteSpace=wrap;html=1;shape=mxgraph.bootstrap.rightButton;rSize=5;fillColor=inherit;fontColor=inherit;" parent="X6VAbB2DJtp1OujrMZTn-45" vertex="1">
          <mxGeometry x="90" width="30" height="30" as="geometry" />
        </mxCell>
        <mxCell id="X6VAbB2DJtp1OujrMZTn-50" value="" style="text;" parent="X6VAbB2DJtp1OujrMZTn-45" vertex="1">
          <mxGeometry x="120" width="10" height="30" as="geometry" />
        </mxCell>
        <mxCell id="X6VAbB2DJtp1OujrMZTn-51" value="5" style="text;strokeColor=inherit;align=center;verticalAlign=middle;spacingLeft=10;spacingRight=10;overflow=hidden;points=[[0,0.5],[1,0.5]];portConstraint=eastwest;rotatable=0;whiteSpace=wrap;html=1;shape=mxgraph.bootstrap.leftButton;rSize=5;fillColor=inherit;fontColor=inherit;" parent="X6VAbB2DJtp1OujrMZTn-45" vertex="1">
          <mxGeometry x="130" width="30" height="30" as="geometry" />
        </mxCell>
        <mxCell id="X6VAbB2DJtp1OujrMZTn-52" value="6" style="text;strokeColor=inherit;align=center;verticalAlign=middle;spacingLeft=10;spacingRight=10;overflow=hidden;points=[[0,0.5],[1,0.5]];portConstraint=eastwest;rotatable=0;whiteSpace=wrap;html=1;rSize=5;fillColor=inherit;fontColor=inherit;" parent="X6VAbB2DJtp1OujrMZTn-45" vertex="1">
          <mxGeometry x="160" width="30" height="30" as="geometry" />
        </mxCell>
        <mxCell id="X6VAbB2DJtp1OujrMZTn-53" value="7" style="text;strokeColor=inherit;align=center;verticalAlign=middle;spacingLeft=10;spacingRight=10;overflow=hidden;points=[[0,0.5],[1,0.5]];portConstraint=eastwest;rotatable=0;whiteSpace=wrap;html=1;shape=mxgraph.bootstrap.rightButton;rSize=5;fillColor=inherit;fontColor=inherit;" parent="X6VAbB2DJtp1OujrMZTn-45" vertex="1">
          <mxGeometry x="190" width="30" height="30" as="geometry" />
        </mxCell>
        <mxCell id="X6VAbB2DJtp1OujrMZTn-54" value="" style="text;" parent="X6VAbB2DJtp1OujrMZTn-45" vertex="1">
          <mxGeometry x="220" width="10" height="30" as="geometry" />
        </mxCell>
        <mxCell id="X6VAbB2DJtp1OujrMZTn-55" value="8" style="text;strokeColor=inherit;align=center;verticalAlign=middle;spacingLeft=10;spacingRight=10;overflow=hidden;points=[[0,0.5],[1,0.5]];portConstraint=eastwest;rotatable=0;whiteSpace=wrap;html=1;shape=mxgraph.bootstrap.rrect;rSize=5;fillColor=inherit;fontColor=inherit;" parent="X6VAbB2DJtp1OujrMZTn-45" vertex="1">
          <mxGeometry x="230" width="30" height="30" as="geometry" />
        </mxCell>
        <mxCell id="X6VAbB2DJtp1OujrMZTn-56" value="Edit" style="rounded=1;fillColor=#0065FF;align=center;strokeColor=none;html=1;fontColor=#ffffff;fontSize=12;whiteSpace=wrap;" parent="1" vertex="1">
          <mxGeometry x="-760" y="880" width="50" height="33" as="geometry" />
        </mxCell>
        <mxCell id="X6VAbB2DJtp1OujrMZTn-57" value="Comment" style="rounded=1;fillColor=#F1F2F4;align=center;strokeColor=none;html=1;fontColor=#596780;fontSize=12;whiteSpace=wrap;" parent="1" vertex="1">
          <mxGeometry x="-705" y="880" width="80" height="33" as="geometry" />
        </mxCell>
        <mxCell id="X6VAbB2DJtp1OujrMZTn-58" value="Assign" style="rounded=1;fillColor=#F1F2F4;align=center;strokeColor=none;html=1;fontColor=#596780;fontSize=12;whiteSpace=wrap;" parent="1" vertex="1">
          <mxGeometry x="-620" y="880" width="70" height="33" as="geometry" />
        </mxCell>
        <mxCell id="X6VAbB2DJtp1OujrMZTn-59" value="" style="strokeWidth=1;shadow=0;dashed=0;align=center;html=1;shape=mxgraph.mockup.rrect;rSize=10;fillColor=#F1F2F4;strokeColor=#ffffff;strokeWidth=2" parent="1" vertex="1">
          <mxGeometry x="-545" y="880" width="240" height="33" as="geometry" />
        </mxCell>
        <mxCell id="X6VAbB2DJtp1OujrMZTn-60" value="In Progress" style="strokeWidth=1;shadow=0;dashed=0;align=center;html=1;shape=mxgraph.mockup.rrect;rSize=0;fontSize=12;fontColor=#596780;fontStyle=0;fillColor=none;strokeColor=#ffffff;strokeWidth=2;resizeHeight=1;whiteSpace=wrap;" parent="X6VAbB2DJtp1OujrMZTn-59" vertex="1">
          <mxGeometry width="90" height="33" relative="1" as="geometry">
            <mxPoint x="60" as="offset" />
          </mxGeometry>
        </mxCell>
        <mxCell id="X6VAbB2DJtp1OujrMZTn-61" value="Workflow" style="strokeWidth=1;shadow=0;dashed=0;align=left;html=1;shape=mxgraph.mockup.rightButton;rSize=10;fontSize=12;fontColor=#596780;fontStyle=0;fillColor=none;strokeColor=#ffffff;strokeWidth=2;resizeHeight=1;spacingLeft=10;whiteSpace=wrap;" parent="X6VAbB2DJtp1OujrMZTn-59" vertex="1">
          <mxGeometry x="1" width="90" height="33" relative="1" as="geometry">
            <mxPoint x="-90" as="offset" />
          </mxGeometry>
        </mxCell>
        <mxCell id="X6VAbB2DJtp1OujrMZTn-62" value="" style="shape=triangle;direction=south;fillColor=#596780;strokeColor=none;html=1" parent="X6VAbB2DJtp1OujrMZTn-61" vertex="1">
          <mxGeometry x="1" y="0.5" width="12" height="6" relative="1" as="geometry">
            <mxPoint x="-20" y="-3" as="offset" />
          </mxGeometry>
        </mxCell>
        <mxCell id="X6VAbB2DJtp1OujrMZTn-63" value="Later" style="strokeWidth=1;shadow=0;dashed=0;align=center;html=1;shape=mxgraph.mockup.leftButton;rSize=10;fontSize=12;fontColor=#596780;fontStyle=0;fillColor=none;strokeColor=#ffffff;strokeWidth=2;resizeHeight=1;whiteSpace=wrap;" parent="X6VAbB2DJtp1OujrMZTn-59" vertex="1">
          <mxGeometry width="60" height="33" relative="1" as="geometry" />
        </mxCell>
        <mxCell id="X6VAbB2DJtp1OujrMZTn-64" value="" style="rounded=1;fillColor=#F1F2F4;align=center;strokeColor=none;html=1;fontColor=#596780;fontSize=12" parent="1" vertex="1">
          <mxGeometry x="-260" y="880" width="56" height="33" as="geometry" />
        </mxCell>
        <mxCell id="X6VAbB2DJtp1OujrMZTn-65" value="" style="shape=ellipse;fillColor=#596780;strokeColor=none;html=1" parent="X6VAbB2DJtp1OujrMZTn-64" vertex="1">
          <mxGeometry x="15" y="13" width="6" height="6" as="geometry" />
        </mxCell>
        <mxCell id="X6VAbB2DJtp1OujrMZTn-66" value="" style="shape=ellipse;fillColor=#596780;strokeColor=none;html=1" parent="X6VAbB2DJtp1OujrMZTn-64" vertex="1">
          <mxGeometry x="25" y="13" width="6" height="6" as="geometry" />
        </mxCell>
        <mxCell id="X6VAbB2DJtp1OujrMZTn-67" value="" style="shape=ellipse;fillColor=#596780;strokeColor=none;html=1" parent="X6VAbB2DJtp1OujrMZTn-64" vertex="1">
          <mxGeometry x="35" y="13" width="6" height="6" as="geometry" />
        </mxCell>
        <mxCell id="X6VAbB2DJtp1OujrMZTn-68" value="&lt;span style=&quot;font-size: 10px;&quot;&gt;&lt;b&gt;Need research&lt;/b&gt;&lt;/span&gt;" style="verticalLabelPosition=middle;verticalAlign=middle;html=1;shape=mxgraph.basic.patternFillRect;fillStyle=diag;step=5;fillStrokeWidth=0.2;fillStrokeColor=#dddddd;align=center;labelPosition=center;fillColor=#f5f5f5;fontColor=#000000;strokeColor=#666666;whiteSpace=wrap;strokeWidth=0.75;" parent="1" vertex="1">
          <mxGeometry x="200" y="200" width="120" height="20" as="geometry" />
        </mxCell>
        <mxCell id="X6VAbB2DJtp1OujrMZTn-69" value="&lt;b style=&quot;font-size: 10px;&quot;&gt;BigSubString&lt;/b&gt;" style="verticalLabelPosition=middle;verticalAlign=middle;html=1;shape=mxgraph.basic.patternFillRect;fillStyle=diag;step=5;fillStrokeWidth=0.2;fillStrokeColor=#dddddd;align=center;labelPosition=center;fillColor=#f5f5f5;fontColor=#000000;strokeColor=#666666;whiteSpace=wrap;strokeWidth=0.75;" parent="1" vertex="1">
          <mxGeometry x="800" y="480" width="120" height="20" as="geometry" />
        </mxCell>
        <mxCell id="X6VAbB2DJtp1OujrMZTn-70" value="&lt;b style=&quot;font-size: 10px;&quot;&gt;Substring&lt;/b&gt;" style="verticalLabelPosition=middle;verticalAlign=middle;html=1;shape=mxgraph.basic.patternFillRect;fillStyle=diag;step=5;fillStrokeWidth=0.2;fillStrokeColor=#dddddd;align=center;labelPosition=center;fillColor=#f5f5f5;fontColor=#000000;strokeColor=#666666;whiteSpace=wrap;strokeWidth=0.75;" parent="1" vertex="1">
          <mxGeometry x="800" y="540" width="120" height="20" as="geometry" />
        </mxCell>
        <mxCell id="X6VAbB2DJtp1OujrMZTn-75" value="&lt;b style=&quot;font-size: 10px;&quot;&gt;CharacterSet&lt;/b&gt;" style="verticalLabelPosition=middle;verticalAlign=middle;html=1;shape=mxgraph.basic.patternFillRect;fillStyle=diag;step=5;fillStrokeWidth=0.2;fillStrokeColor=#dddddd;align=center;labelPosition=center;fillColor=#dae8fc;strokeColor=#6c8ebf;whiteSpace=wrap;strokeWidth=0.75;" parent="1" vertex="1">
          <mxGeometry x="1600" y="500" width="120" height="20" as="geometry" />
        </mxCell>
        <mxCell id="X6VAbB2DJtp1OujrMZTn-82" style="edgeStyle=orthogonalEdgeStyle;rounded=0;orthogonalLoop=1;jettySize=auto;html=1;entryX=0.5;entryY=0;entryDx=0;entryDy=0;entryPerimeter=0;dashed=1;" parent="1" target="X6VAbB2DJtp1OujrMZTn-5" edge="1">
          <mxGeometry relative="1" as="geometry">
            <Array as="points">
              <mxPoint x="1660" y="160" />
            </Array>
            <mxPoint x="1660" y="160" as="sourcePoint" />
            <mxPoint x="1760" y="290" as="targetPoint" />
          </mxGeometry>
        </mxCell>
        <mxCell id="3IASwDgf_COoiKYOPxRM-17" value="&lt;span style=&quot;font-size: 10px; text-wrap-mode: wrap;&quot;&gt;&lt;b&gt;Range&lt;/b&gt;&lt;/span&gt;" style="verticalLabelPosition=middle;verticalAlign=middle;html=1;shape=mxgraph.basic.patternFillRect;fillStyle=diag;step=5;fillStrokeWidth=0.2;fillStrokeColor=#dddddd;align=center;labelPosition=center;fillColor=#dae8fc;strokeColor=#6c8ebf;whiteSpace=wrap;strokeWidth=0.75;" parent="1" vertex="1">
          <mxGeometry x="1400" y="460" width="120" height="20" as="geometry" />
        </mxCell>
        <mxCell id="3IASwDgf_COoiKYOPxRM-18" value="&lt;span style=&quot;font-size: 10px; text-wrap-mode: wrap;&quot;&gt;&lt;b&gt;ClosedRange&lt;/b&gt;&lt;/span&gt;" style="verticalLabelPosition=middle;verticalAlign=middle;html=1;shape=mxgraph.basic.patternFillRect;fillStyle=diag;step=5;fillStrokeWidth=0.2;fillStrokeColor=#dddddd;align=center;labelPosition=center;fillColor=#dae8fc;strokeColor=#6c8ebf;whiteSpace=wrap;strokeWidth=0.75;" parent="1" vertex="1">
          <mxGeometry x="1400" y="500" width="120" height="20" as="geometry" />
        </mxCell>
        <mxCell id="X6VAbB2DJtp1OujrMZTn-78" style="edgeStyle=orthogonalEdgeStyle;rounded=0;orthogonalLoop=1;jettySize=auto;html=1;exitX=0.25;exitY=1;exitDx=0;exitDy=0;exitPerimeter=0;entryX=0.5;entryY=0;entryDx=0;entryDy=0;dashed=1;" parent="1" source="sW1JyRlPo4o779v0U5yo-1" target="X6VAbB2DJtp1OujrMZTn-76" edge="1">
          <mxGeometry relative="1" as="geometry" />
        </mxCell>
        <mxCell id="X6VAbB2DJtp1OujrMZTn-79" value="Artificial protocol" style="edgeLabel;html=1;align=center;verticalAlign=middle;resizable=0;points=[];fontColor=#0066CC;" parent="X6VAbB2DJtp1OujrMZTn-78" vertex="1" connectable="0">
          <mxGeometry x="0.3037" y="-1" relative="1" as="geometry">
            <mxPoint x="75" y="-9" as="offset" />
          </mxGeometry>
        </mxCell>
        <mxCell id="sW1JyRlPo4o779v0U5yo-1" value="&lt;span style=&quot;font-size: 10px; text-wrap-mode: wrap;&quot;&gt;&lt;b&gt;No common builtin protocol&lt;/b&gt;&lt;/span&gt;&lt;div&gt;&lt;span style=&quot;font-size: 10px; text-wrap-mode: wrap;&quot;&gt;&lt;b&gt;to init&amp;nbsp;&lt;/b&gt;&lt;/span&gt;&lt;b style=&quot;font-size: 10px; background-color: transparent; color: light-dark(rgb(0, 0, 0), rgb(255, 255, 255));&quot;&gt;generically&lt;/b&gt;&lt;/div&gt;" style="verticalLabelPosition=middle;verticalAlign=middle;html=1;shape=mxgraph.basic.patternFillRect;fillStyle=diag;step=5;fillStrokeWidth=0.2;fillStrokeColor=#dddddd;align=center;labelPosition=center;whiteSpace=wrap;" parent="1" vertex="1">
          <mxGeometry x="1200" y="240" width="120" height="40" as="geometry" />
        </mxCell>
        <mxCell id="sW1JyRlPo4o779v0U5yo-3" value="&lt;span style=&quot;font-size: 10px; text-wrap-mode: wrap;&quot;&gt;&lt;b&gt;OrderedSet&lt;/b&gt;&lt;/span&gt;" style="verticalLabelPosition=middle;verticalAlign=middle;html=1;shape=mxgraph.basic.patternFillRect;fillStyle=diag;step=5;fillStrokeWidth=0.2;fillStrokeColor=#dddddd;align=center;labelPosition=center;whiteSpace=wrap;strokeWidth=0.75;" parent="1" vertex="1">
          <mxGeometry x="1000" y="500" width="120" height="20" as="geometry" />
        </mxCell>
        <mxCell id="sW1JyRlPo4o779v0U5yo-4" value="&lt;span style=&quot;font-size: 10px; text-wrap-mode: wrap;&quot;&gt;&lt;b&gt;BitSet&lt;/b&gt;&lt;/span&gt;" style="verticalLabelPosition=middle;verticalAlign=middle;html=1;shape=mxgraph.basic.patternFillRect;fillStyle=diag;step=5;fillStrokeWidth=0.2;fillStrokeColor=#dddddd;align=center;labelPosition=center;whiteSpace=wrap;strokeWidth=0.75;" parent="1" vertex="1">
          <mxGeometry x="1000" y="540" width="120" height="20" as="geometry" />
        </mxCell>
        <mxCell id="sW1JyRlPo4o779v0U5yo-5" value="&lt;span style=&quot;font-size: 10px; text-wrap-mode: wrap;&quot;&gt;&lt;b&gt;OrderedDictionary&lt;/b&gt;&lt;/span&gt;" style="verticalLabelPosition=middle;verticalAlign=middle;html=1;shape=mxgraph.basic.patternFillRect;fillStyle=diag;step=5;fillStrokeWidth=0.2;fillStrokeColor=#dddddd;align=center;labelPosition=center;whiteSpace=wrap;strokeWidth=0.75;" parent="1" vertex="1">
          <mxGeometry x="1200" y="500" width="120" height="20" as="geometry" />
        </mxCell>
        <mxCell id="sW1JyRlPo4o779v0U5yo-6" value="&lt;span style=&quot;font-size: 10px; text-wrap-mode: wrap;&quot;&gt;&lt;b&gt;TreeDictionary&lt;/b&gt;&lt;/span&gt;" style="verticalLabelPosition=middle;verticalAlign=middle;html=1;shape=mxgraph.basic.patternFillRect;fillStyle=diag;step=5;fillStrokeWidth=0.2;fillStrokeColor=#dddddd;align=center;labelPosition=center;whiteSpace=wrap;strokeWidth=0.75;" parent="1" vertex="1">
          <mxGeometry x="1200" y="540" width="120" height="20" as="geometry" />
        </mxCell>
        <mxCell id="sW1JyRlPo4o779v0U5yo-7" value="&lt;span style=&quot;font-size: 10px; text-wrap-mode: wrap;&quot;&gt;&lt;b&gt;TreeSet&lt;/b&gt;&lt;/span&gt;" style="verticalLabelPosition=middle;verticalAlign=middle;html=1;shape=mxgraph.basic.patternFillRect;fillStyle=diag;step=5;fillStrokeWidth=0.2;fillStrokeColor=#dddddd;align=center;labelPosition=center;whiteSpace=wrap;strokeWidth=0.75;" parent="1" vertex="1">
          <mxGeometry x="1000" y="580" width="120" height="20" as="geometry" />
        </mxCell>
        <mxCell id="sW1JyRlPo4o779v0U5yo-8" value="&lt;span style=&quot;font-size: 10px; text-wrap-mode: wrap;&quot;&gt;&lt;b&gt;Set&lt;/b&gt;&lt;/span&gt;" style="verticalLabelPosition=middle;verticalAlign=middle;html=1;shape=mxgraph.basic.patternFillRect;fillStyle=diag;step=5;fillStrokeWidth=0.2;fillStrokeColor=#dddddd;align=center;labelPosition=center;whiteSpace=wrap;strokeWidth=0.75;" parent="1" vertex="1">
          <mxGeometry x="1000" y="460" width="120" height="20" as="geometry" />
        </mxCell>
        <mxCell id="sW1JyRlPo4o779v0U5yo-9" value="&lt;b style=&quot;font-size: 10px; text-wrap-mode: wrap;&quot;&gt;Dictionary&lt;/b&gt;" style="verticalLabelPosition=middle;verticalAlign=middle;html=1;shape=mxgraph.basic.patternFillRect;fillStyle=diag;step=5;fillStrokeWidth=0.2;fillStrokeColor=#dddddd;align=center;labelPosition=center;whiteSpace=wrap;strokeWidth=0.75;" parent="1" vertex="1">
          <mxGeometry x="1200" y="460" width="120" height="20" as="geometry" />
        </mxCell>
        <mxCell id="sW1JyRlPo4o779v0U5yo-10" value="&lt;span style=&quot;font-size: 10px; text-wrap-mode: wrap;&quot;&gt;&lt;b&gt;IndexSet&lt;/b&gt;&lt;/span&gt;" style="verticalLabelPosition=middle;verticalAlign=middle;html=1;shape=mxgraph.basic.patternFillRect;fillStyle=diag;step=5;fillStrokeWidth=0.2;fillStrokeColor=#dddddd;align=center;labelPosition=center;whiteSpace=wrap;strokeWidth=0.75;" parent="1" vertex="1">
          <mxGeometry x="1000" y="620" width="120" height="20" as="geometry" />
        </mxCell>
        <mxCell id="X6VAbB2DJtp1OujrMZTn-76" value="&lt;font style=&quot;&quot;&gt;NonEmpty&lt;/font&gt;&lt;div&gt;&lt;font style=&quot;&quot;&gt;CompatibleSet&lt;/font&gt;&lt;/div&gt;&lt;div&gt;&lt;font style=&quot;&quot;&gt;Collection&lt;/font&gt;&lt;/div&gt;" style="rounded=1;whiteSpace=wrap;html=1;fontStyle=1;fontColor=#004C99;" parent="1" vertex="1">
          <mxGeometry x="1000" y="360" width="120" height="40" as="geometry" />
        </mxCell>
        <mxCell id="X6VAbB2DJtp1OujrMZTn-80" style="edgeStyle=orthogonalEdgeStyle;rounded=0;orthogonalLoop=1;jettySize=auto;html=1;exitX=0.5;exitY=1;exitDx=0;exitDy=0;exitPerimeter=0;dashed=1;entryX=0.5;entryY=0;entryDx=0;entryDy=0;" parent="1" source="sW1JyRlPo4o779v0U5yo-1" target="cdhMQ48s3i1X5rSXo4Mi-3" edge="1">
          <mxGeometry relative="1" as="geometry">
            <mxPoint x="1230" y="310" as="sourcePoint" />
            <mxPoint x="1260" y="330" as="targetPoint" />
            <Array as="points" />
          </mxGeometry>
        </mxCell>
        <mxCell id="dqpC9F4BHEuCSBYJWPyx-1" value="&lt;span style=&quot;color: rgb(0, 102, 204);&quot;&gt;Artificial protocol&lt;/span&gt;" style="edgeLabel;html=1;align=center;verticalAlign=middle;resizable=0;points=[];labelBackgroundColor=default;" parent="X6VAbB2DJtp1OujrMZTn-80" vertex="1" connectable="0">
          <mxGeometry x="0.4583" y="2" relative="1" as="geometry">
            <mxPoint x="-3" y="-1" as="offset" />
          </mxGeometry>
        </mxCell>
        <mxCell id="X6VAbB2DJtp1OujrMZTn-83" value="Compatible Set-Type based init" style="shape=umlFrame;whiteSpace=wrap;html=1;pointerEvents=0;recursiveResize=0;container=1;collapsible=0;width=155;height=20;fontStyle=1;fontSize=10;align=center;spacingLeft=0;" parent="1" vertex="1">
          <mxGeometry x="970" y="670" width="180" height="80" as="geometry" />
        </mxCell>
        <mxCell id="X6VAbB2DJtp1OujrMZTn-84" value="init(element: Element)&#xa;&#xa;init(elements first: Element, &#xa;      _ other: Element...)" style="text;whiteSpace=wrap;fontSize=10;verticalAlign=top;spacing=0;" parent="X6VAbB2DJtp1OujrMZTn-83" vertex="1">
          <mxGeometry x="10" y="20" width="140" height="54" as="geometry" />
        </mxCell>
        <mxCell id="X6VAbB2DJtp1OujrMZTn-88" value="head-tail init&lt;div&gt;Disallowed&lt;/div&gt;" style="rounded=1;whiteSpace=wrap;html=1;fontStyle=1;fillColor=#f5f5f5;fontColor=#999999;strokeColor=#808080;" parent="1" vertex="1">
          <mxGeometry x="800" y="600" width="120" height="40" as="geometry" />
        </mxCell>
        <mxCell id="X6VAbB2DJtp1OujrMZTn-90" style="edgeStyle=orthogonalEdgeStyle;rounded=0;orthogonalLoop=1;jettySize=auto;html=1;exitX=0;exitY=0.25;exitDx=0;exitDy=0;entryX=0;entryY=0.5;entryDx=0;entryDy=0;entryPerimeter=0;fontColor=default;strokeColor=#808080;strokeWidth=0.75;" parent="1" source="X6VAbB2DJtp1OujrMZTn-88" target="X6VAbB2DJtp1OujrMZTn-70" edge="1">
          <mxGeometry relative="1" as="geometry">
            <mxPoint x="880" y="940" as="sourcePoint" />
            <mxPoint x="880" y="600" as="targetPoint" />
            <Array as="points">
              <mxPoint x="780" y="610" />
              <mxPoint x="780" y="550" />
            </Array>
          </mxGeometry>
        </mxCell>
        <mxCell id="X6VAbB2DJtp1OujrMZTn-91" style="edgeStyle=orthogonalEdgeStyle;rounded=0;orthogonalLoop=1;jettySize=auto;html=1;exitX=0;exitY=0.25;exitDx=0;exitDy=0;fontColor=default;strokeColor=#808080;strokeWidth=0.75;entryX=0;entryY=0.5;entryDx=0;entryDy=0;entryPerimeter=0;" parent="1" source="X6VAbB2DJtp1OujrMZTn-88" target="X6VAbB2DJtp1OujrMZTn-69" edge="1">
          <mxGeometry relative="1" as="geometry">
            <mxPoint x="710" y="840" as="sourcePoint" />
            <mxPoint x="930" y="630" as="targetPoint" />
          </mxGeometry>
        </mxCell>
        <mxCell id="1AWGjHHhZuSpIFOF91N6-5" value="" style="shape=flexArrow;endArrow=classic;html=1;rounded=0;endWidth=9.411764705882353;endSize=3.016161616161616;width=10;strokeWidth=0.6;" parent="1" edge="1">
          <mxGeometry width="50" height="50" relative="1" as="geometry">
            <mxPoint x="1259.62" y="420" as="sourcePoint" />
            <mxPoint x="1259.62" y="440" as="targetPoint" />
          </mxGeometry>
        </mxCell>
        <mxCell id="1AWGjHHhZuSpIFOF91N6-6" value="" style="shape=flexArrow;endArrow=classic;html=1;rounded=0;endWidth=9.411764705882353;endSize=3.016161616161616;width=10;strokeWidth=0.6;" parent="1" edge="1">
          <mxGeometry width="50" height="50" relative="1" as="geometry">
            <mxPoint x="459.71000000000004" y="420" as="sourcePoint" />
            <mxPoint x="459.71000000000004" y="440" as="targetPoint" />
          </mxGeometry>
        </mxCell>
        <mxCell id="1AWGjHHhZuSpIFOF91N6-7" value="" style="shape=flexArrow;endArrow=classic;html=1;rounded=0;endWidth=9.411764705882353;endSize=3.016161616161616;width=10;strokeWidth=0.6;" parent="1" edge="1">
          <mxGeometry width="50" height="50" relative="1" as="geometry">
            <mxPoint x="1059.73" y="420" as="sourcePoint" />
            <mxPoint x="1059.73" y="440" as="targetPoint" />
          </mxGeometry>
        </mxCell>
        <mxCell id="1AWGjHHhZuSpIFOF91N6-8" value="" style="shape=flexArrow;endArrow=classic;html=1;rounded=0;endWidth=9.411764705882353;endSize=3.016161616161616;width=10;strokeWidth=0.6;" parent="1" edge="1">
          <mxGeometry width="50" height="50" relative="1" as="geometry">
            <mxPoint x="859.66" y="420" as="sourcePoint" />
            <mxPoint x="859.66" y="440" as="targetPoint" />
          </mxGeometry>
        </mxCell>
        <mxCell id="1AWGjHHhZuSpIFOF91N6-9" value="" style="shape=flexArrow;endArrow=classic;html=1;rounded=0;endWidth=9.411764705882353;endSize=3.016161616161616;width=10;strokeWidth=0.6;" parent="1" edge="1">
          <mxGeometry width="50" height="50" relative="1" as="geometry">
            <mxPoint x="659.72" y="420" as="sourcePoint" />
            <mxPoint x="659.72" y="440" as="targetPoint" />
          </mxGeometry>
        </mxCell>
        <mxCell id="1AWGjHHhZuSpIFOF91N6-10" value="" style="shape=flexArrow;endArrow=classic;html=1;rounded=0;endWidth=9.411764705882353;endSize=3.016161616161616;width=10;strokeWidth=0.6;" parent="1" edge="1">
          <mxGeometry width="50" height="50" relative="1" as="geometry">
            <mxPoint x="1659.69" y="420" as="sourcePoint" />
            <mxPoint x="1659.69" y="440" as="targetPoint" />
          </mxGeometry>
        </mxCell>
        <mxCell id="cdhMQ48s3i1X5rSXo4Mi-1" value="" style="shape=flexArrow;endArrow=classic;html=1;rounded=0;endWidth=9.411764705882353;endSize=3.016161616161616;width=10;strokeWidth=0.6;" parent="1" edge="1">
          <mxGeometry width="50" height="50" relative="1" as="geometry">
            <mxPoint x="1459.52" y="420" as="sourcePoint" />
            <mxPoint x="1459.52" y="440" as="targetPoint" />
          </mxGeometry>
        </mxCell>
        <mxCell id="cdhMQ48s3i1X5rSXo4Mi-2" style="edgeStyle=orthogonalEdgeStyle;rounded=0;orthogonalLoop=1;jettySize=auto;html=1;exitX=0.75;exitY=1;exitDx=0;exitDy=0;exitPerimeter=0;dashed=1;" parent="1" source="sW1JyRlPo4o779v0U5yo-1" edge="1">
          <mxGeometry relative="1" as="geometry">
            <mxPoint x="1300" y="330" as="sourcePoint" />
            <mxPoint x="1460" y="380" as="targetPoint" />
            <Array as="points">
              <mxPoint x="1290" y="320" />
              <mxPoint x="1460" y="320" />
            </Array>
          </mxGeometry>
        </mxCell>
        <mxCell id="cdhMQ48s3i1X5rSXo4Mi-3" value="&lt;font style=&quot;&quot;&gt;SingleValue&lt;/font&gt;&lt;div&gt;&lt;font style=&quot;&quot;&gt;ForKey&lt;/font&gt;&lt;/div&gt;&lt;div&gt;&lt;font style=&quot;&quot;&gt;Dictionary&lt;/font&gt;&lt;/div&gt;" style="rounded=1;whiteSpace=wrap;html=1;fontStyle=1;fontColor=#004C99;" parent="1" vertex="1">
          <mxGeometry x="1200" y="360" width="120" height="40" as="geometry" />
        </mxCell>
        <mxCell id="ZBEdidLx-zmhQpAg-1HU-2" value="SingleValueForKeyDictionary&amp;nbsp;&lt;div&gt;based init&lt;/div&gt;" style="shape=umlFrame;whiteSpace=wrap;html=1;pointerEvents=0;recursiveResize=0;container=1;collapsible=0;width=155;height=20;fontStyle=1;fontSize=8;align=center;spacingLeft=0;" parent="1" vertex="1">
          <mxGeometry x="1170" y="590" width="180" height="80" as="geometry" />
        </mxCell>
        <mxCell id="ZBEdidLx-zmhQpAg-1HU-3" value="init(element: Element)&#xa;&#xa;init(elements first: Element, &#xa;      _ other: Element...)" style="text;whiteSpace=wrap;fontSize=10;verticalAlign=top;spacing=0;" parent="ZBEdidLx-zmhQpAg-1HU-2" vertex="1">
          <mxGeometry x="10" y="20" width="140" height="54" as="geometry" />
        </mxCell>
        <mxCell id="ZBEdidLx-zmhQpAg-1HU-7" value="" style="group" parent="1" vertex="1" connectable="0">
          <mxGeometry x="670" y="660" width="180" height="110" as="geometry" />
        </mxCell>
        <mxCell id="X6VAbB2DJtp1OujrMZTn-11" value="RangeReplaceable based init" style="shape=umlFrame;whiteSpace=wrap;html=1;pointerEvents=0;recursiveResize=0;container=1;collapsible=0;width=155;height=20;fontStyle=1;fontSize=10;align=center;spacingLeft=0;" parent="ZBEdidLx-zmhQpAg-1HU-7" vertex="1">
          <mxGeometry y="30" width="180" height="80" as="geometry" />
        </mxCell>
        <mxCell id="X6VAbB2DJtp1OujrMZTn-12" value="init(element: Element)&#xa;&#xa;init(elements first: Element, &#xa;      _ other: Element...)" style="text;whiteSpace=wrap;fontSize=10;verticalAlign=top;spacing=0;" parent="X6VAbB2DJtp1OujrMZTn-11" vertex="1">
          <mxGeometry x="10" y="20" width="140" height="54" as="geometry" />
        </mxCell>
        <mxCell id="ZBEdidLx-zmhQpAg-1HU-5" value="" style="endArrow=classic;html=1;rounded=0;dashed=1;exitX=0.727;exitY=-0.008;exitDx=0;exitDy=0;exitPerimeter=0;opacity=30;" parent="ZBEdidLx-zmhQpAg-1HU-7" source="X6VAbB2DJtp1OujrMZTn-11" edge="1">
          <mxGeometry width="50" height="50" relative="1" as="geometry">
            <mxPoint x="80" y="30" as="sourcePoint" />
            <mxPoint x="170" as="targetPoint" />
          </mxGeometry>
        </mxCell>
        <mxCell id="ZBEdidLx-zmhQpAg-1HU-6" value="" style="endArrow=classic;html=1;rounded=0;dashed=1;exitX=0.275;exitY=0.001;exitDx=0;exitDy=0;exitPerimeter=0;opacity=30;" parent="ZBEdidLx-zmhQpAg-1HU-7" source="X6VAbB2DJtp1OujrMZTn-11" edge="1">
          <mxGeometry width="50" height="50" relative="1" as="geometry">
            <mxPoint x="170" y="39" as="sourcePoint" />
            <mxPoint x="10" as="targetPoint" />
          </mxGeometry>
        </mxCell>
      </root>
    </mxGraphModel>
  </diagram>
  <diagram id="fjSwt5ECtUeGXOnEmD8X" name="DictionaryProtocol">
    <mxGraphModel dx="842" dy="649" grid="1" gridSize="10" guides="1" tooltips="1" connect="1" arrows="1" fold="1" page="1" pageScale="1" pageWidth="2336" pageHeight="1654" math="0" shadow="0">
      <root>
        <mxCell id="0" />
        <mxCell id="1" parent="0" />
        <mxCell id="gml4_IPK1xJVaWTmKK9C-41" value="&lt;span style=&quot;font-weight: 700;&quot;&gt;Dictionary&lt;/span&gt;" style="rounded=0;whiteSpace=wrap;html=1;fillColor=#F3FFF3;" parent="1" vertex="1">
          <mxGeometry x="770" y="1060" width="200" height="40" as="geometry" />
        </mxCell>
        <mxCell id="gml4_IPK1xJVaWTmKK9C-42" value="&lt;span style=&quot;font-weight: 700;&quot;&gt;OrderedDictionary&lt;/span&gt;" style="rounded=0;whiteSpace=wrap;html=1;fillColor=#F3FFF3;" parent="1" vertex="1">
          <mxGeometry x="770" y="1140" width="200" height="40" as="geometry" />
        </mxCell>
        <mxCell id="gml4_IPK1xJVaWTmKK9C-43" value="&lt;b&gt;Tree&lt;/b&gt;&lt;span style=&quot;font-weight: 700;&quot;&gt;Dictionary&lt;/span&gt;" style="rounded=0;whiteSpace=wrap;html=1;fillColor=#F3FFF3;" parent="1" vertex="1">
          <mxGeometry x="770" y="1220" width="200" height="40" as="geometry" />
        </mxCell>
        <mxCell id="gml4_IPK1xJVaWTmKK9C-44" style="edgeStyle=orthogonalEdgeStyle;rounded=0;orthogonalLoop=1;jettySize=auto;html=1;endArrow=block;endFill=0;endSize=8;exitX=1;exitY=0.5;exitDx=0;exitDy=0;entryX=0.5;entryY=1;entryDx=0;entryDy=0;" parent="1" source="gml4_IPK1xJVaWTmKK9C-41" target="gml4_IPK1xJVaWTmKK9C-39" edge="1">
          <mxGeometry relative="1" as="geometry">
            <mxPoint x="1180" y="1040" as="sourcePoint" />
            <mxPoint x="1180" y="1000" as="targetPoint" />
          </mxGeometry>
        </mxCell>
        <mxCell id="gml4_IPK1xJVaWTmKK9C-51" style="edgeStyle=orthogonalEdgeStyle;rounded=0;orthogonalLoop=1;jettySize=auto;html=1;endArrow=block;endFill=0;endSize=8;exitX=0;exitY=0.5;exitDx=0;exitDy=0;entryX=0.5;entryY=1;entryDx=0;entryDy=0;" parent="1" source="gml4_IPK1xJVaWTmKK9C-41" target="gml4_IPK1xJVaWTmKK9C-49" edge="1">
          <mxGeometry relative="1" as="geometry">
            <mxPoint x="740" y="940" as="sourcePoint" />
            <mxPoint x="740" y="900" as="targetPoint" />
          </mxGeometry>
        </mxCell>
        <mxCell id="gml4_IPK1xJVaWTmKK9C-45" style="edgeStyle=orthogonalEdgeStyle;rounded=0;orthogonalLoop=1;jettySize=auto;html=1;endArrow=block;endFill=0;endSize=8;exitX=1;exitY=0.5;exitDx=0;exitDy=0;entryX=0.5;entryY=1;entryDx=0;entryDy=0;" parent="1" source="gml4_IPK1xJVaWTmKK9C-42" target="gml4_IPK1xJVaWTmKK9C-39" edge="1">
          <mxGeometry relative="1" as="geometry">
            <mxPoint x="1120" y="1120" as="sourcePoint" />
            <mxPoint x="1120" y="1080" as="targetPoint" />
          </mxGeometry>
        </mxCell>
        <mxCell id="gml4_IPK1xJVaWTmKK9C-52" style="edgeStyle=orthogonalEdgeStyle;rounded=0;orthogonalLoop=1;jettySize=auto;html=1;endArrow=block;endFill=0;endSize=8;exitX=0;exitY=0.5;exitDx=0;exitDy=0;entryX=0.5;entryY=1;entryDx=0;entryDy=0;" parent="1" source="gml4_IPK1xJVaWTmKK9C-42" target="gml4_IPK1xJVaWTmKK9C-49" edge="1">
          <mxGeometry relative="1" as="geometry">
            <mxPoint x="1280" y="1070" as="sourcePoint" />
            <mxPoint x="1280" y="1030" as="targetPoint" />
            <Array as="points">
              <mxPoint x="551" y="1160" />
            </Array>
          </mxGeometry>
        </mxCell>
        <mxCell id="gml4_IPK1xJVaWTmKK9C-46" style="edgeStyle=orthogonalEdgeStyle;rounded=0;orthogonalLoop=1;jettySize=auto;html=1;endArrow=block;endFill=0;endSize=8;exitX=1;exitY=0.5;exitDx=0;exitDy=0;entryX=0.5;entryY=1;entryDx=0;entryDy=0;" parent="1" source="gml4_IPK1xJVaWTmKK9C-43" target="gml4_IPK1xJVaWTmKK9C-39" edge="1">
          <mxGeometry relative="1" as="geometry">
            <mxPoint x="1160" y="1110" as="sourcePoint" />
            <mxPoint x="1160" y="1070" as="targetPoint" />
          </mxGeometry>
        </mxCell>
        <mxCell id="wUqbcgu3ZkxFRCWes-cX-2" value="Can return either a single key-value pair or a collection of such pairs for a given index.&lt;div&gt;Values property return all values contained in dictionary.&lt;/div&gt;" style="text;html=1;align=left;verticalAlign=top;whiteSpace=wrap;rounded=0;fontSize=8;strokeColor=default;strokeWidth=0.75;" parent="1" vertex="1">
          <mxGeometry x="1560" y="480" width="260" height="40" as="geometry" />
        </mxCell>
        <mxCell id="gml4_IPK1xJVaWTmKK9C-16" value="&lt;p style=&quot;margin:0px;margin-top:4px;text-align:center;&quot;&gt;«interface»&lt;br&gt;&lt;span style=&quot;font-weight: 700;&quot;&gt;DictionaryCollection&lt;/span&gt;&lt;/p&gt;&lt;p style=&quot;margin: 4px 0px 0px;&quot;&gt;&lt;font style=&quot;font-size: 6px;&quot;&gt;&lt;span style=&quot;background-color: transparent; color: light-dark(rgb(0, 0, 0), rgb(255, 255, 255));&quot;&gt;&amp;nbsp; &amp;nbsp; associatedtype &lt;/span&gt;&lt;span style=&quot;background-color: transparent;&quot;&gt;&lt;font style=&quot;color: light-dark(rgb(0, 153, 0), rgb(255, 255, 255));&quot;&gt;Index&lt;/font&gt;&lt;/span&gt;&lt;span style=&quot;background-color: transparent; color: light-dark(rgb(0, 0, 0), rgb(255, 255, 255));&quot;&gt;: Comparable&lt;br&gt;&lt;/span&gt;&lt;span style=&quot;background-color: transparent; color: light-dark(rgb(0, 0, 0), rgb(255, 255, 255));&quot;&gt;&amp;nbsp; &amp;nbsp; associatedtype &lt;/span&gt;&lt;span style=&quot;background-color: transparent;&quot;&gt;&lt;font style=&quot;color: light-dark(rgb(0, 0, 255), rgb(255, 255, 255));&quot;&gt;Keys&lt;/font&gt;&lt;/span&gt;&lt;span style=&quot;background-color: transparent; color: light-dark(rgb(0, 0, 0), rgb(255, 255, 255));&quot;&gt;: Collection&amp;lt;Key&amp;gt;, Equatable&lt;br&gt;&lt;/span&gt;&lt;span style=&quot;background-color: transparent; color: light-dark(rgb(0, 0, 0), rgb(255, 255, 255));&quot;&gt;&amp;nbsp; &amp;nbsp; associatedtype &lt;/span&gt;&lt;span style=&quot;background-color: transparent;&quot;&gt;&lt;font style=&quot;color: light-dark(rgb(102, 0, 204), rgb(255, 255, 255));&quot;&gt;Values&lt;/font&gt;&lt;/span&gt;&lt;span style=&quot;background-color: transparent; color: light-dark(rgb(0, 0, 0), rgb(255, 255, 255));&quot;&gt;: Collection&amp;lt;Value&amp;gt;&lt;/span&gt;&lt;/font&gt;&lt;/p&gt;&lt;hr size=&quot;1&quot; style=&quot;border-style:solid;&quot;&gt;&lt;p style=&quot;margin:0px;margin-left:4px;&quot;&gt;&lt;font style=&quot;font-size: 8px;&quot;&gt;&amp;nbsp;keys: &lt;font style=&quot;color: rgb(0, 0, 255);&quot;&gt;Keys&lt;/font&gt; { get }&lt;/font&gt;&lt;/p&gt;&lt;p style=&quot;margin:0px;margin-left:4px;&quot;&gt;&lt;font style=&quot;font-size: 8px;&quot;&gt;&amp;nbsp;values: &lt;font style=&quot;color: rgb(102, 0, 204);&quot;&gt;Values&lt;/font&gt; { get }&lt;/font&gt;&lt;/p&gt;&lt;p style=&quot;margin:0px;margin-left:4px;&quot;&gt;&lt;font style=&quot;font-size: 8px;&quot;&gt;&amp;nbsp;isEmpty: Bool { get }&lt;/font&gt;&lt;/p&gt;&lt;p style=&quot;margin:0px;margin-left:4px;&quot;&gt;&lt;font style=&quot;font-size: 8px;&quot;&gt;&amp;nbsp;count: Int { get }&lt;/font&gt;&lt;/p&gt;&lt;hr size=&quot;1&quot; style=&quot;border-style:solid;&quot;&gt;&lt;p style=&quot;margin:0px;margin-left:4px;&quot;&gt;&lt;font style=&quot;font-size: 8px;&quot;&gt;&amp;nbsp;index(forKey: Key) -&amp;gt; &lt;font style=&quot;color: rgb(0, 153, 0);&quot;&gt;Index&lt;/font&gt;?&lt;/font&gt;&lt;/p&gt;" style="verticalAlign=top;align=left;overflow=fill;html=1;whiteSpace=wrap;spacingLeft=0;spacing=2;" parent="1" vertex="1">
          <mxGeometry x="1080" y="250" width="260" height="190" as="geometry" />
        </mxCell>
        <mxCell id="gml4_IPK1xJVaWTmKK9C-17" value="«interface»&lt;br&gt;&lt;span style=&quot;font-weight: 700;&quot;&gt;Sequence&lt;/span&gt;" style="html=1;whiteSpace=wrap;" parent="1" vertex="1">
          <mxGeometry x="1080" y="80" width="260" height="50" as="geometry" />
        </mxCell>
        <mxCell id="gml4_IPK1xJVaWTmKK9C-18" value="«interface»&lt;br&gt;&lt;span style=&quot;font-weight: 700;&quot;&gt;DictionarySequence&lt;/span&gt;" style="html=1;whiteSpace=wrap;" parent="1" vertex="1">
          <mxGeometry x="1080" y="170" width="260" height="40" as="geometry" />
        </mxCell>
        <mxCell id="gml4_IPK1xJVaWTmKK9C-20" style="edgeStyle=orthogonalEdgeStyle;rounded=0;orthogonalLoop=1;jettySize=auto;html=1;entryX=0.5;entryY=1;entryDx=0;entryDy=0;endArrow=block;endFill=0;endSize=8;exitX=0.5;exitY=0;exitDx=0;exitDy=0;" parent="1" source="gml4_IPK1xJVaWTmKK9C-18" target="gml4_IPK1xJVaWTmKK9C-17" edge="1">
          <mxGeometry relative="1" as="geometry">
            <mxPoint x="1320" y="290" as="sourcePoint" />
            <mxPoint x="1160" y="350" as="targetPoint" />
          </mxGeometry>
        </mxCell>
        <mxCell id="gml4_IPK1xJVaWTmKK9C-21" style="edgeStyle=orthogonalEdgeStyle;rounded=0;orthogonalLoop=1;jettySize=auto;html=1;endArrow=block;endFill=0;endSize=8;exitX=0.5;exitY=0;exitDx=0;exitDy=0;entryX=0.5;entryY=1;entryDx=0;entryDy=0;" parent="1" source="gml4_IPK1xJVaWTmKK9C-16" target="gml4_IPK1xJVaWTmKK9C-18" edge="1">
          <mxGeometry relative="1" as="geometry">
            <mxPoint x="1230" y="190" as="sourcePoint" />
            <mxPoint x="1181" y="210" as="targetPoint" />
          </mxGeometry>
        </mxCell>
        <mxCell id="gml4_IPK1xJVaWTmKK9C-32" value="&lt;p style=&quot;margin:0px;margin-top:4px;text-align:center;&quot;&gt;«interface»&lt;br&gt;&lt;b&gt;SingleValueGetSubscriptDictionary&lt;/b&gt;&lt;/p&gt;&lt;hr size=&quot;1&quot; style=&quot;border-style:solid;&quot;&gt;&lt;p style=&quot;margin:0px;margin-left:4px;&quot;&gt;&lt;font style=&quot;font-size: 8px;&quot;&gt;&amp;nbsp;&lt;/font&gt;&lt;span style=&quot;background-color: transparent; font-size: 8px;&quot;&gt;subscript(key: Key) -&amp;gt; Value? { get }&lt;br&gt;&lt;/span&gt;&lt;span style=&quot;font-size: 8px;&quot;&gt;&amp;nbsp;subscript(key: Key, default: () -&amp;gt; Value) -&amp;gt; Value { get }&lt;/span&gt;&lt;span style=&quot;background-color: transparent; font-size: 8px;&quot;&gt;&lt;/span&gt;&lt;/p&gt;&lt;p style=&quot;margin:0px;margin-left:4px;&quot;&gt;&lt;span style=&quot;font-size: 8px;&quot;&gt;&amp;nbsp;subscript(position: Index) -&amp;gt; Element { get }&lt;/span&gt;&lt;/p&gt;" style="verticalAlign=top;align=left;overflow=fill;html=1;whiteSpace=wrap;spacingLeft=0;spacing=2;" parent="1" vertex="1">
          <mxGeometry x="1080" y="480" width="260" height="90" as="geometry" />
        </mxCell>
        <mxCell id="gml4_IPK1xJVaWTmKK9C-33" style="edgeStyle=orthogonalEdgeStyle;rounded=0;orthogonalLoop=1;jettySize=auto;html=1;endArrow=block;endFill=0;endSize=8;exitX=0.5;exitY=0;exitDx=0;exitDy=0;entryX=0.5;entryY=1;entryDx=0;entryDy=0;" parent="1" source="gml4_IPK1xJVaWTmKK9C-32" target="gml4_IPK1xJVaWTmKK9C-16" edge="1">
          <mxGeometry relative="1" as="geometry">
            <mxPoint x="1300" y="700" as="sourcePoint" />
            <mxPoint x="1300" y="660" as="targetPoint" />
          </mxGeometry>
        </mxCell>
        <mxCell id="gml4_IPK1xJVaWTmKK9C-35" value="&lt;p style=&quot;margin:0px;margin-top:4px;text-align:center;&quot;&gt;«interface»&lt;br&gt;&lt;b&gt;SingleValueSetSubscriptDictionary&lt;/b&gt;&lt;/p&gt;&lt;hr size=&quot;1&quot; style=&quot;border-style:solid;&quot;&gt;&lt;p style=&quot;margin:0px;margin-left:4px;&quot;&gt;&lt;font style=&quot;font-size: 8px;&quot;&gt;&amp;nbsp;&lt;/font&gt;&lt;span style=&quot;background-color: transparent; font-size: 8px;&quot;&gt;subscript(key: Key) -&amp;gt; Value? { get set }&lt;/span&gt;&lt;span style=&quot;font-size: 8px; background-color: transparent; color: light-dark(rgb(0, 0, 0), rgb(255, 255, 255));&quot;&gt;&amp;nbsp;&lt;/span&gt;&lt;span style=&quot;font-size: 8px; background-color: transparent; color: light-dark(rgb(0, 0, 0), rgb(255, 255, 255));&quot;&gt;| &lt;i&gt;overload&lt;/i&gt;&lt;/span&gt;&lt;/p&gt;&lt;p style=&quot;margin:0px;margin-left:4px;&quot;&gt;&lt;span style=&quot;font-size: 8px;&quot;&gt;&amp;nbsp;subscript(key: Key, default: () -&amp;gt; Value) -&amp;gt; Value { get set } | &lt;i&gt;overload&lt;/i&gt;&lt;/span&gt;&lt;/p&gt;&lt;p style=&quot;margin:0px;margin-left:4px;&quot;&gt;&lt;span style=&quot;font-size: 8px;&quot;&gt;&amp;nbsp;&amp;nbsp;&lt;/span&gt;&lt;/p&gt;&lt;p style=&quot;margin:0px;margin-left:4px;&quot;&gt;&lt;span style=&quot;font-size: 8px;&quot;&gt;&amp;nbsp;mutating removeValue(forKey: Key) -&amp;gt; Value?&lt;/span&gt;&lt;/p&gt;&lt;p style=&quot;margin:0px;margin-left:4px;&quot;&gt;&lt;span style=&quot;background-color: transparent; font-size: 8px;&quot;&gt;&amp;nbsp;mutating remove(at: Self.Index) -&amp;gt; Self.Element&lt;/span&gt;&lt;span style=&quot;font-size: 8px;&quot;&gt;&amp;nbsp;{ get }&lt;/span&gt;&lt;/p&gt;" style="verticalAlign=top;align=left;overflow=fill;html=1;whiteSpace=wrap;spacingLeft=0;spacing=2;" parent="1" vertex="1">
          <mxGeometry x="1080" y="740" width="260" height="130" as="geometry" />
        </mxCell>
        <mxCell id="gml4_IPK1xJVaWTmKK9C-36" style="edgeStyle=orthogonalEdgeStyle;rounded=0;orthogonalLoop=1;jettySize=auto;html=1;endArrow=block;endFill=0;endSize=8;exitX=0.5;exitY=0;exitDx=0;exitDy=0;entryX=0.5;entryY=1;entryDx=0;entryDy=0;" parent="1" source="gml4_IPK1xJVaWTmKK9C-35" target="uuu2kpEIgIzknucwFZhd-1" edge="1">
          <mxGeometry relative="1" as="geometry">
            <mxPoint x="1300" y="650" as="sourcePoint" />
            <mxPoint x="1300" y="600" as="targetPoint" />
          </mxGeometry>
        </mxCell>
        <mxCell id="gml4_IPK1xJVaWTmKK9C-37" value="&lt;p style=&quot;margin:0px;margin-top:4px;text-align:center;&quot;&gt;«interface»&lt;br&gt;&lt;b style=&quot;background-color: transparent; color: light-dark(rgb(0, 0, 0), rgb(255, 255, 255));&quot;&gt;MultipleValues&lt;/b&gt;&lt;b style=&quot;background-color: transparent; color: light-dark(rgb(51, 51, 51), rgb(193, 193, 193));&quot;&gt;DictionaryWith&lt;/b&gt;&lt;b style=&quot;background-color: transparent; color: light-dark(rgb(51, 51, 51), rgb(193, 193, 193));&quot;&gt;IndexSubscript&lt;/b&gt;&lt;/p&gt;&lt;p style=&quot;margin: 4px 0px 0px;&quot;&gt;&lt;span style=&quot;background-color: transparent; font-size: 6px;&quot;&gt;&amp;nbsp; &amp;nbsp; associatedtype InstanceForIndex&lt;/span&gt;&lt;/p&gt;&lt;hr size=&quot;1&quot; style=&quot;border-style:solid;&quot;&gt;&lt;p style=&quot;margin:0px;margin-left:4px;&quot;&gt;&lt;font style=&quot;font-size: 8px;&quot;&gt;&amp;nbsp;&lt;/font&gt;&lt;span style=&quot;background-color: transparent; font-size: 8px;&quot;&gt;subscript(position: Index) -&amp;gt; InstanceForIndex { get }&lt;/span&gt;&lt;/p&gt;&lt;p style=&quot;margin:0px;margin-left:4px;&quot;&gt;&lt;span style=&quot;font-size: 8px;&quot;&gt;&amp;nbsp;mutating func remove(at: Self.Index) -&amp;gt; InstanceForIndex&lt;/span&gt;&lt;/p&gt;" style="verticalAlign=top;align=left;overflow=fill;html=1;whiteSpace=wrap;spacingLeft=0;spacing=2;fillColor=#f5f5f5;fontColor=#333333;strokeColor=#666666;" parent="1" vertex="1">
          <mxGeometry x="1560" y="380" width="260" height="100" as="geometry" />
        </mxCell>
        <mxCell id="gml4_IPK1xJVaWTmKK9C-38" style="edgeStyle=orthogonalEdgeStyle;rounded=0;orthogonalLoop=1;jettySize=auto;html=1;endArrow=block;endFill=0;endSize=8;exitX=0.5;exitY=0;exitDx=0;exitDy=0;entryX=1;entryY=0.25;entryDx=0;entryDy=0;" parent="1" source="gml4_IPK1xJVaWTmKK9C-37" target="gml4_IPK1xJVaWTmKK9C-16" edge="1">
          <mxGeometry relative="1" as="geometry">
            <mxPoint x="1390" y="640" as="sourcePoint" />
            <mxPoint x="1390" y="590" as="targetPoint" />
          </mxGeometry>
        </mxCell>
        <mxCell id="gml4_IPK1xJVaWTmKK9C-39" value="«interface»&lt;br&gt;&lt;b&gt;SingleValueForKeyDictionary&lt;/b&gt;" style="html=1;whiteSpace=wrap;" parent="1" vertex="1">
          <mxGeometry x="1080" y="920" width="260" height="40" as="geometry" />
        </mxCell>
        <mxCell id="gml4_IPK1xJVaWTmKK9C-40" style="edgeStyle=orthogonalEdgeStyle;rounded=0;orthogonalLoop=1;jettySize=auto;html=1;endArrow=block;endFill=0;endSize=8;exitX=0.5;exitY=0;exitDx=0;exitDy=0;entryX=0.5;entryY=1;entryDx=0;entryDy=0;" parent="1" source="gml4_IPK1xJVaWTmKK9C-39" target="gml4_IPK1xJVaWTmKK9C-35" edge="1">
          <mxGeometry relative="1" as="geometry">
            <mxPoint x="1480" y="810" as="sourcePoint" />
            <mxPoint x="1480" y="770" as="targetPoint" />
          </mxGeometry>
        </mxCell>
        <mxCell id="gml4_IPK1xJVaWTmKK9C-47" value="&lt;p style=&quot;margin:0px;margin-top:4px;text-align:center;&quot;&gt;«interface»&lt;br&gt;&lt;b&gt;EmptyInitializableDictionary&lt;/b&gt;&lt;/p&gt;&lt;hr size=&quot;1&quot; style=&quot;border-style:solid;&quot;&gt;&lt;p style=&quot;margin:0px;margin-left:4px;&quot;&gt;&lt;font style=&quot;font-size: 8px;&quot;&gt;&amp;nbsp;&lt;/font&gt;&lt;span style=&quot;background-color: transparent; font-size: 8px;&quot;&gt;init()&lt;/span&gt;&lt;/p&gt;" style="verticalAlign=top;align=left;overflow=fill;html=1;whiteSpace=wrap;spacingLeft=0;spacing=2;" parent="1" vertex="1">
          <mxGeometry x="740" y="780" width="260" height="70" as="geometry" />
        </mxCell>
        <mxCell id="gml4_IPK1xJVaWTmKK9C-48" style="edgeStyle=orthogonalEdgeStyle;rounded=0;orthogonalLoop=1;jettySize=auto;html=1;endArrow=block;endFill=0;endSize=8;exitX=0.25;exitY=0;exitDx=0;exitDy=0;entryX=0.75;entryY=1;entryDx=0;entryDy=0;" parent="1" source="gml4_IPK1xJVaWTmKK9C-39" target="gml4_IPK1xJVaWTmKK9C-47" edge="1">
          <mxGeometry relative="1" as="geometry">
            <mxPoint x="1210" y="1090" as="sourcePoint" />
            <mxPoint x="1210" y="1050" as="targetPoint" />
            <Array as="points">
              <mxPoint x="1145" y="905" />
              <mxPoint x="935" y="905" />
            </Array>
          </mxGeometry>
        </mxCell>
        <mxCell id="gml4_IPK1xJVaWTmKK9C-49" value="&lt;p style=&quot;margin:0px;margin-top:4px;text-align:center;&quot;&gt;«interface»&lt;br&gt;&lt;b&gt;&lt;font style=&quot;font-size: 11px;&quot;&gt;EmptyInitializable&lt;/font&gt;&lt;/b&gt;&lt;b style=&quot;background-color: transparent; color: light-dark(rgb(0, 0, 0), rgb(255, 255, 255));&quot;&gt;&lt;font style=&quot;font-size: 11px;&quot;&gt;WithCapacity&lt;/font&gt;&lt;/b&gt;&lt;b style=&quot;background-color: transparent; color: light-dark(rgb(0, 0, 0), rgb(255, 255, 255));&quot;&gt;&lt;font style=&quot;font-size: 11px;&quot;&gt;Dictionary&lt;/font&gt;&lt;/b&gt;&lt;/p&gt;&lt;hr size=&quot;1&quot; style=&quot;border-style:solid;&quot;&gt;&lt;p style=&quot;margin:0px;margin-left:4px;&quot;&gt;&lt;font style=&quot;font-size: 8px;&quot;&gt;&amp;nbsp;&lt;/font&gt;&lt;span style=&quot;background-color: transparent; font-size: 8px;&quot;&gt;init(minimumCapacity: Int)&lt;/span&gt;&lt;/p&gt;&lt;p style=&quot;margin:0px;margin-left:4px;&quot;&gt;&lt;span style=&quot;font-size: 8px;&quot;&gt;&amp;nbsp;mutating removeAll(keepingCapacity: Bool)&lt;/span&gt;&lt;/p&gt;" style="verticalAlign=top;align=left;overflow=fill;html=1;whiteSpace=wrap;spacingLeft=0;spacing=2;" parent="1" vertex="1">
          <mxGeometry x="440" y="920" width="222" height="90" as="geometry" />
        </mxCell>
        <mxCell id="gml4_IPK1xJVaWTmKK9C-53" style="edgeStyle=orthogonalEdgeStyle;rounded=0;orthogonalLoop=1;jettySize=auto;html=1;endArrow=block;endFill=0;endSize=8;exitX=0.75;exitY=0;exitDx=0;exitDy=0;entryX=0.25;entryY=1;entryDx=0;entryDy=0;" parent="1" source="gml4_IPK1xJVaWTmKK9C-49" target="gml4_IPK1xJVaWTmKK9C-47" edge="1">
          <mxGeometry relative="1" as="geometry">
            <mxPoint x="1240" y="1050" as="sourcePoint" />
            <mxPoint x="1240" y="1010" as="targetPoint" />
            <Array as="points">
              <mxPoint x="607" y="905" />
              <mxPoint x="805" y="905" />
            </Array>
          </mxGeometry>
        </mxCell>
        <mxCell id="wUqbcgu3ZkxFRCWes-cX-1" value="&lt;p style=&quot;margin: 4px 0px 0px;&quot;&gt;&lt;/p&gt;&lt;div style=&quot;text-align: center;&quot;&gt;&lt;span style=&quot;background-color: transparent; color: light-dark(rgb(0, 0, 0), rgb(255, 255, 255));&quot;&gt;«interface»&lt;/span&gt;&lt;/div&gt;&lt;b&gt;&lt;div style=&quot;text-align: center;&quot;&gt;&lt;b style=&quot;background-color: transparent; color: light-dark(rgb(0, 0, 0), rgb(255, 255, 255));&quot;&gt;MultipleValuesForKeyGetSubscriptDictionary&lt;/b&gt;&lt;/div&gt;&lt;/b&gt;&lt;span style=&quot;color: rgb(51, 51, 51); font-size: 6px;&quot;&gt;&amp;nbsp; &amp;nbsp; associatedtype ValuesForKey: Collection&amp;lt;Value&amp;gt;&lt;/span&gt;&lt;b&gt;&lt;/b&gt;&lt;p&gt;&lt;/p&gt;&lt;hr size=&quot;1&quot; style=&quot;border-style:solid;&quot;&gt;&lt;p style=&quot;margin:0px;margin-left:4px;&quot;&gt;&lt;font style=&quot;font-size: 8px;&quot;&gt;&amp;nbsp;&lt;/font&gt;&lt;span style=&quot;background-color: transparent; font-size: 8px;&quot;&gt;&amp;nbsp;subscript(key: Key) -&amp;gt; ValuesForKey? { get }&lt;/span&gt;&lt;/p&gt;" style="verticalAlign=top;align=left;overflow=fill;html=1;whiteSpace=wrap;spacingLeft=0;spacing=2;fillColor=#f5f5f5;fontColor=#333333;strokeColor=#666666;" parent="1" vertex="1">
          <mxGeometry x="1900" y="380" width="260" height="90" as="geometry" />
        </mxCell>
        <mxCell id="wUqbcgu3ZkxFRCWes-cX-3" style="edgeStyle=orthogonalEdgeStyle;rounded=0;orthogonalLoop=1;jettySize=auto;html=1;endArrow=block;endFill=0;endSize=8;exitX=0.5;exitY=0;exitDx=0;exitDy=0;entryX=1;entryY=0.25;entryDx=0;entryDy=0;" parent="1" source="wUqbcgu3ZkxFRCWes-cX-1" target="gml4_IPK1xJVaWTmKK9C-16" edge="1">
          <mxGeometry relative="1" as="geometry">
            <mxPoint x="2030" y="512" as="sourcePoint" />
            <mxPoint x="1720" y="440" as="targetPoint" />
          </mxGeometry>
        </mxCell>
        <mxCell id="wUqbcgu3ZkxFRCWes-cX-4" value="Return a collection key-value pairs&amp;nbsp;for a given key.&lt;div&gt;Values property return all values contained in dictionary.&lt;/div&gt;" style="text;html=1;align=left;verticalAlign=top;whiteSpace=wrap;rounded=0;fontSize=8;strokeColor=default;strokeWidth=0.75;" parent="1" vertex="1">
          <mxGeometry x="1900" y="470" width="260" height="40" as="geometry" />
        </mxCell>
        <mxCell id="uuu2kpEIgIzknucwFZhd-1" value="&lt;p style=&quot;margin:0px;margin-top:4px;text-align:center;&quot;&gt;«interface»&lt;br&gt;&lt;b&gt;NonEmptyCompatibleOperationsDictionary&lt;/b&gt;&lt;/p&gt;&lt;hr size=&quot;1&quot; style=&quot;border-style:solid;&quot;&gt;&lt;p style=&quot;margin:0px;margin-left:4px;&quot;&gt;&lt;span style=&quot;background-color: transparent; color: light-dark(rgb(0, 0, 0), rgb(255, 255, 255)); font-size: 8px;&quot;&gt;&amp;nbsp;mutating updateValue(_ value: Value, forKey: Key) -&amp;gt; Value?&lt;br&gt;&amp;nbsp;&lt;/span&gt;&lt;span style=&quot;background-color: transparent; font-size: 8px;&quot;&gt;mutating merge(_ : some Sequence&amp;lt;(Key, Value)&amp;gt;,&amp;nbsp;&lt;/span&gt;&lt;/p&gt;&lt;p style=&quot;margin:0px;margin-left:4px;&quot;&gt;&lt;span style=&quot;font-size: 8px; white-space: normal;&quot;&gt;&lt;span style=&quot;white-space:pre&quot;&gt;&#x9;&#x9;&#x9;&lt;/span&gt;&amp;nbsp; &amp;nbsp;uniquingKeysWith: (Value, Value) -&amp;gt; Value)&lt;/span&gt;&lt;/p&gt;" style="verticalAlign=top;align=left;overflow=fill;html=1;whiteSpace=wrap;spacingLeft=0;spacing=2;" parent="1" vertex="1">
          <mxGeometry x="1080" y="610" width="260" height="90" as="geometry" />
        </mxCell>
        <mxCell id="uuu2kpEIgIzknucwFZhd-2" style="edgeStyle=orthogonalEdgeStyle;rounded=0;orthogonalLoop=1;jettySize=auto;html=1;endArrow=block;endFill=0;endSize=8;exitX=0.5;exitY=0;exitDx=0;exitDy=0;entryX=0.5;entryY=1;entryDx=0;entryDy=0;" parent="1" source="uuu2kpEIgIzknucwFZhd-1" target="gml4_IPK1xJVaWTmKK9C-32" edge="1">
          <mxGeometry relative="1" as="geometry">
            <mxPoint x="1260" y="750" as="sourcePoint" />
            <mxPoint x="1260" y="710" as="targetPoint" />
          </mxGeometry>
        </mxCell>
        <mxCell id="uuu2kpEIgIzknucwFZhd-3" value="&lt;span style=&quot;font-weight: 700;&quot;&gt;NonEmpty where Base&lt;/span&gt;&lt;div&gt;&lt;b&gt;NonEmptyOperationsDictionary&lt;/b&gt;&lt;/div&gt;" style="rounded=0;whiteSpace=wrap;html=1;fillColor=#F3FFF3;" parent="1" vertex="1">
          <mxGeometry x="120" y="1060" width="260" height="40" as="geometry" />
        </mxCell>
        <mxCell id="uuu2kpEIgIzknucwFZhd-7" value="&lt;p style=&quot;margin:0px;margin-top:4px;text-align:center;&quot;&gt;«interface»&lt;br&gt;&lt;b&gt;CapacityReservableDictionary&lt;/b&gt;&lt;/p&gt;&lt;hr size=&quot;1&quot; style=&quot;border-style:solid;&quot;&gt;&lt;p style=&quot;margin:0px;margin-left:4px;&quot;&gt;&lt;span style=&quot;font-size: 8px; background-color: transparent; color: light-dark(rgb(0, 0, 0), rgb(255, 255, 255));&quot;&gt;&amp;nbsp;mutating reserveCapacity(_: Int)&lt;/span&gt;&lt;/p&gt;" style="verticalAlign=top;align=left;overflow=fill;html=1;whiteSpace=wrap;spacingLeft=0;spacing=2;" parent="1" vertex="1">
          <mxGeometry x="440" y="780" width="222" height="70" as="geometry" />
        </mxCell>
        <mxCell id="uuu2kpEIgIzknucwFZhd-8" style="edgeStyle=orthogonalEdgeStyle;rounded=0;orthogonalLoop=1;jettySize=auto;html=1;endArrow=block;endFill=0;endSize=8;exitX=0.5;exitY=0;exitDx=0;exitDy=0;entryX=0.5;entryY=1;entryDx=0;entryDy=0;" parent="1" source="gml4_IPK1xJVaWTmKK9C-49" target="uuu2kpEIgIzknucwFZhd-7" edge="1">
          <mxGeometry relative="1" as="geometry">
            <mxPoint x="560" y="910" as="sourcePoint" />
            <mxPoint x="560" y="860" as="targetPoint" />
          </mxGeometry>
        </mxCell>
        <mxCell id="2irCISLkpt7ydGkOwvXZ-2" value="&lt;b&gt;Future multipleValues for key&lt;/b&gt;&lt;div&gt;&lt;b&gt;Dictionary types&lt;/b&gt;&lt;/div&gt;" style="rounded=0;whiteSpace=wrap;html=1;fillColor=#F3FFF3;" parent="1" vertex="1">
          <mxGeometry x="1730" y="580" width="260" height="40" as="geometry" />
        </mxCell>
        <mxCell id="2irCISLkpt7ydGkOwvXZ-3" style="edgeStyle=orthogonalEdgeStyle;rounded=0;orthogonalLoop=1;jettySize=auto;html=1;endArrow=block;endFill=0;endSize=8;exitX=0.5;exitY=0;exitDx=0;exitDy=0;entryX=0.5;entryY=1;entryDx=0;entryDy=0;" parent="1" source="2irCISLkpt7ydGkOwvXZ-2" target="wUqbcgu3ZkxFRCWes-cX-2" edge="1">
          <mxGeometry relative="1" as="geometry">
            <mxPoint x="1660" y="600" as="sourcePoint" />
            <mxPoint x="1660" y="560" as="targetPoint" />
          </mxGeometry>
        </mxCell>
        <mxCell id="2irCISLkpt7ydGkOwvXZ-4" style="edgeStyle=orthogonalEdgeStyle;rounded=0;orthogonalLoop=1;jettySize=auto;html=1;endArrow=block;endFill=0;endSize=8;exitX=0.5;exitY=0;exitDx=0;exitDy=0;entryX=0.5;entryY=1;entryDx=0;entryDy=0;" parent="1" source="2irCISLkpt7ydGkOwvXZ-2" target="wUqbcgu3ZkxFRCWes-cX-4" edge="1">
          <mxGeometry relative="1" as="geometry">
            <mxPoint x="1700" y="610" as="sourcePoint" />
            <mxPoint x="1700" y="570" as="targetPoint" />
            <Array as="points">
              <mxPoint x="1860" y="550" />
              <mxPoint x="2030" y="550" />
            </Array>
          </mxGeometry>
        </mxCell>
        <mxCell id="2irCISLkpt7ydGkOwvXZ-8" style="edgeStyle=orthogonalEdgeStyle;rounded=0;orthogonalLoop=1;jettySize=auto;html=1;endArrow=block;endFill=0;endSize=8;exitX=0.5;exitY=0;exitDx=0;exitDy=0;entryX=0;entryY=0.25;entryDx=0;entryDy=0;" parent="1" source="gml4_IPK1xJVaWTmKK9C-47" target="gml4_IPK1xJVaWTmKK9C-16" edge="1">
          <mxGeometry relative="1" as="geometry">
            <mxPoint x="1050" y="610" as="sourcePoint" />
            <mxPoint x="1050" y="570" as="targetPoint" />
            <Array as="points">
              <mxPoint x="870" y="760" />
              <mxPoint x="700" y="760" />
              <mxPoint x="700" y="298" />
            </Array>
          </mxGeometry>
        </mxCell>
        <mxCell id="uuu2kpEIgIzknucwFZhd-6" style="edgeStyle=orthogonalEdgeStyle;rounded=0;orthogonalLoop=1;jettySize=auto;html=1;endArrow=block;endFill=0;endSize=8;exitX=0.5;exitY=0;exitDx=0;exitDy=0;entryX=0.25;entryY=1;entryDx=0;entryDy=0;jumpStyle=arc;strokeColor=#007FFF;" parent="1" source="uuu2kpEIgIzknucwFZhd-3" target="uuu2kpEIgIzknucwFZhd-1" edge="1">
          <mxGeometry relative="1" as="geometry">
            <mxPoint x="1300" y="930" as="sourcePoint" />
            <mxPoint x="720" y="650" as="targetPoint" />
            <Array as="points">
              <mxPoint x="250" y="718" />
              <mxPoint x="1145" y="718" />
            </Array>
          </mxGeometry>
        </mxCell>
        <mxCell id="2irCISLkpt7ydGkOwvXZ-9" style="edgeStyle=orthogonalEdgeStyle;rounded=0;orthogonalLoop=1;jettySize=auto;html=1;endArrow=block;endFill=0;endSize=8;exitX=0.5;exitY=0;exitDx=0;exitDy=0;entryX=0;entryY=0.25;entryDx=0;entryDy=0;" parent="1" source="uuu2kpEIgIzknucwFZhd-7" target="gml4_IPK1xJVaWTmKK9C-16" edge="1">
          <mxGeometry relative="1" as="geometry">
            <mxPoint x="1030" y="720" as="sourcePoint" />
            <mxPoint x="1030" y="680" as="targetPoint" />
            <Array as="points">
              <mxPoint x="551" y="760" />
              <mxPoint x="700" y="760" />
              <mxPoint x="700" y="298" />
            </Array>
          </mxGeometry>
        </mxCell>
        <mxCell id="2irCISLkpt7ydGkOwvXZ-6" style="edgeStyle=orthogonalEdgeStyle;rounded=0;orthogonalLoop=1;jettySize=auto;html=1;endArrow=block;endFill=0;endSize=8;exitX=0.5;exitY=0;exitDx=0;exitDy=0;entryX=0.25;entryY=1;entryDx=0;entryDy=0;" parent="1" source="uuu2kpEIgIzknucwFZhd-3" target="uuu2kpEIgIzknucwFZhd-7" edge="1">
          <mxGeometry relative="1" as="geometry">
            <mxPoint x="590" y="960" as="sourcePoint" />
            <mxPoint x="590" y="890" as="targetPoint" />
            <Array as="points">
              <mxPoint x="250" y="880" />
              <mxPoint x="495" y="880" />
            </Array>
          </mxGeometry>
        </mxCell>
        <mxCell id="OdSvTil8kjtkqA0TtH58-1" value="&lt;p style=&quot;margin:0px;margin-top:4px;text-align:center;&quot;&gt;«interface»&lt;br&gt;&lt;b&gt;NonEmptyDictionaryType&lt;/b&gt;&lt;/p&gt;&lt;hr size=&quot;1&quot; style=&quot;border-style:solid;&quot;&gt;&lt;p style=&quot;margin:0px;margin-left:4px;&quot;&gt;&lt;font style=&quot;font-size: 8px;&quot;&gt;&amp;nbsp;&lt;/font&gt;&lt;span style=&quot;background-color: transparent; font-size: 8px;&quot;&gt;s&lt;/span&gt;&lt;/p&gt;" style="verticalAlign=top;align=left;overflow=fill;html=1;whiteSpace=wrap;spacingLeft=0;spacing=2;" vertex="1" parent="1">
          <mxGeometry x="1440" y="740" width="260" height="130" as="geometry" />
        </mxCell>
        <mxCell id="OdSvTil8kjtkqA0TtH58-2" style="edgeStyle=orthogonalEdgeStyle;rounded=0;orthogonalLoop=1;jettySize=auto;html=1;endArrow=block;endFill=0;endSize=8;exitX=0.5;exitY=0;exitDx=0;exitDy=0;" edge="1" parent="1" source="OdSvTil8kjtkqA0TtH58-1">
          <mxGeometry relative="1" as="geometry">
            <mxPoint x="1320" y="750" as="sourcePoint" />
            <mxPoint x="1450" y="680" as="targetPoint" />
          </mxGeometry>
        </mxCell>
      </root>
    </mxGraphModel>
  </diagram>
  <diagram id="Wa-wJc9qYbAs8bhPhIhj" name="AllowedOperations">
    <mxGraphModel dx="2630" dy="2028" grid="1" gridSize="10" guides="1" tooltips="1" connect="1" arrows="1" fold="1" page="1" pageScale="1" pageWidth="1654" pageHeight="1169" math="0" shadow="0">
      <root>
        <mxCell id="0" />
        <mxCell id="1" parent="0" />
      </root>
    </mxGraphModel>
  </diagram>
</mxfile>
